<?xml version="1.0" encoding="UTF-8"?>
<svg xmlns="http://www.w3.org/2000/svg" xmlns:xlink="http://www.w3.org/1999/xlink" width="100pt" height="100pt" viewBox="0 0 100 100" version="1.1">
<g id="surface1">
<path style=" stroke:none;fill-rule:nonzero;fill:rgb(100%,100%,100%);fill-opacity:1;" d="M 54.664062 78.472656 C 54.269531 78.273438 53.773438 78.078125 53.277344 77.976562 C 52.480469 77.777344 51.488281 77.582031 50.59375 77.675781 C 49.898438 77.777344 49.007812 77.777344 48.316406 78.078125 C 47.222656 78.472656 46.527344 78.769531 45.734375 79.464844 C 42.859375 81.746094 42.0625 85.710938 43.253906 89.085938 C 43.945312 90.976562 44.742188 92.859375 46.628906 93.851562 C 48.214844 94.640625 50 94.84375 51.6875 94.945312 C 52.976562 95.035156 54.460938 95.035156 55.65625 94.640625 C 56.75 94.246094 57.742188 93.75 58.632812 92.859375 C 59.523438 91.867188 59.917969 91.066406 60.414062 89.78125 C 60.617188 89.386719 60.71875 88.890625 60.71875 88.496094 C 60.808594 87.796875 60.910156 87.101562 61.011719 86.410156 C 61.011719 85.8125 60.910156 85.023438 60.808594 84.527344 C 60.808594 84.03125 60.617188 83.730469 60.515625 83.332031 C 60.3125 82.9375 60.121094 82.542969 59.917969 82.140625 C 59.230469 81.054688 58.429688 80.257812 57.339844 79.566406 C 56.253906 78.96875 54.664062 78.769531 53.46875 79.070312 C 52.378906 79.464844 51.089844 80.355469 50.496094 81.347656 C 49.898438 82.542969 49.601562 83.929688 50 85.214844 C 50.394531 86.511719 51.191406 87.503906 52.285156 88.191406 C 52.378906 88.292969 52.480469 88.292969 52.578125 88.394531 C 52.285156 88.09375 51.984375 87.898438 51.585938 87.597656 C 51.789062 87.695312 51.882812 87.898438 51.984375 88.09375 C 51.6875 87.796875 51.488281 87.402344 51.191406 87.101562 C 51.386719 87.300781 51.585938 87.503906 51.6875 87.695312 C 51.488281 87.300781 51.292969 86.90625 51.191406 86.511719 C 51.292969 86.703125 51.292969 86.90625 51.386719 87.101562 C 51.292969 86.703125 51.191406 86.207031 51.089844 85.8125 C 51.089844 86.109375 51.089844 86.410156 51.089844 86.703125 C 51.191406 86.207031 51.292969 85.8125 51.292969 85.316406 C 51.191406 86.015625 51.089844 86.605469 50.890625 87.199219 C 51.089844 86.804688 51.191406 86.410156 51.386719 86.015625 C 51.292969 86.207031 51.191406 86.410156 50.992188 86.605469 C 51.292969 86.308594 51.488281 85.914062 51.789062 85.613281 C 51.6875 85.8125 51.585938 85.914062 51.488281 86.015625 C 51.789062 85.710938 52.183594 85.519531 52.480469 85.214844 C 52.285156 85.316406 52.183594 85.316406 52.082031 85.417969 C 52.480469 85.214844 52.875 85.117188 53.277344 84.921875 C 53.074219 85.023438 52.78125 85.117188 52.480469 85.117188 C 52.875 85.023438 53.371094 85.023438 53.773438 84.921875 C 52.679688 85.023438 51.585938 84.921875 50.59375 84.820312 C 50.992188 84.921875 51.488281 84.921875 51.882812 85.023438 C 51.386719 84.921875 50.890625 84.921875 50.394531 84.71875 C 50.796875 84.921875 51.191406 85.023438 51.585938 85.214844 C 51.585938 85.214844 51.488281 85.117188 51.386719 85.023438 C 51.6875 85.316406 52.082031 85.519531 52.378906 85.8125 C 52.285156 85.8125 52.183594 85.710938 52.183594 85.613281 C 52.480469 85.914062 52.679688 86.308594 52.976562 86.605469 C 52.78125 86.410156 52.679688 86.109375 52.578125 85.8125 C 52.78125 86.207031 52.875 86.605469 53.074219 87.007812 C 52.78125 86.410156 52.578125 85.710938 52.480469 85.117188 C 52.578125 85.519531 52.578125 86.015625 52.679688 86.410156 C 52.679688 86.015625 52.578125 85.710938 52.679688 85.316406 C 52.578125 85.710938 52.480469 86.207031 52.480469 86.605469 C 52.480469 86.308594 52.578125 86.015625 52.679688 85.710938 C 52.578125 86.109375 52.378906 86.511719 52.183594 86.90625 C 52.285156 86.703125 52.378906 86.511719 52.578125 86.308594 C 52.285156 86.605469 52.082031 87.007812 51.789062 87.300781 C 51.882812 87.101562 52.082031 87.007812 52.183594 86.90625 C 51.882812 87.101562 51.585938 87.402344 51.191406 87.597656 C 51.488281 87.503906 51.6875 87.300781 51.984375 87.199219 C 51.585938 87.402344 51.191406 87.503906 50.796875 87.695312 C 51.089844 87.597656 51.386719 87.503906 51.789062 87.402344 C 51.292969 87.503906 50.890625 87.597656 50.394531 87.597656 C 50.796875 87.597656 51.191406 87.597656 51.585938 87.597656 C 51.191406 87.597656 50.695312 87.503906 50.300781 87.503906 C 50.890625 87.597656 51.488281 87.796875 52.082031 88 C 52.78125 88.191406 53.371094 88.191406 54.066406 88.09375 C 54.765625 88.09375 55.355469 87.898438 55.949219 87.503906 C 56.941406 86.90625 57.933594 85.710938 58.238281 84.527344 C 58.53125 83.234375 58.429688 81.84375 57.742188 80.652344 C 57.4375 80.355469 57.144531 80.0625 56.941406 79.660156 C 56.253906 79.070312 55.554688 78.667969 54.664062 78.472656 Z M 54.664062 78.472656 "/>
<path style=" stroke:none;fill-rule:nonzero;fill:rgb(100%,100%,100%);fill-opacity:1;" d="M 56.546875 63.097656 C 53.964844 63.097656 51.386719 63.199219 48.8125 63.390625 C 50.199219 64.191406 51.6875 65.082031 53.074219 65.871094 C 51.089844 62.003906 50.496094 57.246094 49.601562 52.976562 C 48.710938 48.214844 48.113281 43.355469 47.617188 38.488281 C 46.527344 28.769531 44.246094 19.34375 41.960938 9.921875 C 40.773438 11.90625 39.582031 13.988281 38.488281 15.972656 C 42.164062 15.476562 46.230469 16.367188 49.898438 16.269531 C 53.964844 16.269531 58.035156 15.972656 62.003906 15.476562 C 60.3125 13.789062 58.734375 12.199219 57.042969 10.515625 C 57.246094 15.082031 55.757812 19.445312 54.957031 23.808594 C 53.964844 28.769531 53.277344 33.832031 52.78125 38.792969 C 51.789062 48.410156 51.882812 57.933594 51.6875 67.660156 C 54.167969 66.265625 56.648438 64.777344 59.128906 63.390625 C 56.253906 62.207031 55.355469 59.523438 54.957031 56.445312 C 54.460938 52.285156 54.460938 47.914062 54.066406 43.75 C 53.671875 39.289062 53.074219 34.921875 52.578125 30.460938 C 52.285156 28.375 51.984375 26.289062 51.6875 24.203125 C 51.585938 23.113281 51.386719 22.027344 51.292969 20.933594 C 51.191406 20.335938 51.089844 19.839844 50.992188 19.246094 C 50.992188 18.351562 50.796875 18.554688 50.300781 19.742188 C 49.601562 20.238281 48.90625 20.632812 48.214844 21.128906 C 48.90625 20.832031 49.804688 21.035156 50.59375 21.128906 C 50.992188 21.230469 51.386719 21.230469 51.789062 21.328125 C 52.875 21.625 52.976562 21.625 52.082031 21.328125 C 51.6875 20.539062 51.191406 19.839844 50.796875 19.144531 C 50.796875 19.34375 50.300781 21.625 50.199219 22.21875 C 50 23.515625 49.804688 24.699219 49.503906 25.996094 C 49.007812 28.667969 48.511719 31.351562 48.015625 33.933594 C 46.726562 40.179688 56.347656 42.859375 57.539062 36.605469 C 58.429688 32.039062 59.324219 27.382812 60.019531 22.714844 C 60.71875 18.253906 60.808594 13.988281 55.851562 12.199219 C 52.480469 10.914062 47.023438 10.121094 43.851562 12.402344 C 39.976562 15.277344 41.171875 20.136719 41.765625 24.105469 C 43.054688 33.132812 44.148438 42.261719 44.742188 51.386719 C 45.238281 59.027344 46.03125 68.453125 54.167969 72.023438 C 57.539062 73.511719 61.507812 71.824219 61.609375 67.753906 C 61.800781 58.136719 61.609375 48.511719 62.703125 38.890625 C 63.199219 34.226562 63.886719 29.558594 64.878906 24.902344 C 65.871094 20.136719 67.257812 15.476562 66.964844 10.515625 C 66.863281 8.136719 64.777344 5.253906 62.003906 5.558594 C 57.640625 6.152344 53.175781 6.449219 48.8125 6.449219 C 44.441406 6.449219 40.179688 5.851562 35.914062 6.449219 C 33.234375 6.84375 31.949219 10.214844 32.445312 12.601562 C 34.722656 22.320312 36.90625 31.847656 37.992188 41.867188 C 38.589844 46.828125 39.289062 51.789062 40.28125 56.75 C 41.269531 61.507812 42.164062 66.46875 44.542969 70.832031 C 45.238281 72.320312 47.121094 73.414062 48.8125 73.3125 C 51.386719 73.117188 53.964844 73.015625 56.546875 73.015625 C 62.894531 73.015625 62.894531 63.097656 56.546875 63.097656 Z M 56.546875 63.097656 "/>
</g>
</svg>
