<?xml version="1.0" encoding="utf-8"?>
<!-- Generator: Adobe Illustrator 24.1.0, SVG Export Plug-In . SVG Version: 6.00 Build 0)  -->
<svg version="1.1" id="Layer_1" xmlns="http://www.w3.org/2000/svg" xmlns:xlink="http://www.w3.org/1999/xlink" x="0px" y="0px" height="150px" width="150px"
	 viewBox="0 0 60 30" style="enable-background:new 0 0 60 30;" xml:space="preserve">
<style type="text/css">
	.st0{fill:#FFFFFF;}
</style>
<g>
	<path class="st0" d="M4.33,7.15c0-0.28-0.04-0.49-0.12-0.64C4.13,6.36,3.98,6.22,3.77,6.1c-0.06-0.03-0.09-0.06-0.1-0.08
		C3.65,6,3.65,5.97,3.65,5.94V5.79c0-0.08,0.05-0.12,0.14-0.12h3.17c0.15,0,0.26,0.03,0.32,0.09s0.09,0.16,0.09,0.29v6.3
		c0,0.7-0.24,1.25-0.73,1.67c-0.49,0.42-1.14,0.63-1.94,0.63c-0.64,0-1.16-0.13-1.56-0.4c-0.4-0.26-0.6-0.61-0.6-1.03
		c0-0.38,0.15-0.68,0.45-0.91c0.3-0.23,0.69-0.35,1.17-0.35c0.45,0,0.81,0.1,1.09,0.31s0.41,0.48,0.41,0.82
		c0,0.24-0.09,0.43-0.26,0.58s-0.42,0.22-0.72,0.22c-0.01,0.02-0.01,0.03-0.02,0.05c0,0.02-0.01,0.03-0.01,0.05
		c0,0.06,0.03,0.1,0.08,0.14c0.05,0.04,0.12,0.05,0.21,0.05c0.3,0,0.55-0.11,0.76-0.33c0.21-0.22,0.32-0.49,0.32-0.8
		C6,12.71,5.89,12.43,5.68,12.2c-0.22-0.22-0.56-0.41-1.02-0.55c-0.12-0.04-0.2-0.1-0.25-0.17s-0.07-0.19-0.07-0.34V7.15z M4.2,4
		c0-0.36,0.14-0.65,0.42-0.86C4.9,2.92,5.28,2.81,5.75,2.81c0.47,0,0.85,0.11,1.13,0.32C7.17,3.35,7.31,3.63,7.31,4
		c0,0.35-0.14,0.64-0.43,0.85C6.6,5.06,6.22,5.17,5.75,5.17c-0.47,0-0.85-0.11-1.13-0.32C4.34,4.64,4.2,4.35,4.2,4z"/>
	<path class="st0" d="M10.93,5.67c0.15,0,0.26,0.03,0.32,0.09s0.09,0.16,0.09,0.29v4.13c0,0.09,0.02,0.16,0.06,0.22
		c0.04,0.06,0.1,0.08,0.17,0.08c0.1,0,0.16-0.03,0.2-0.1V6.06c0-0.14,0.03-0.23,0.09-0.29s0.17-0.09,0.32-0.09h2.16
		c0.14,0,0.25,0.03,0.31,0.09s0.1,0.16,0.1,0.29v3.9c0,0.14,0.01,0.23,0.04,0.28c0.02,0.05,0.06,0.07,0.12,0.07
		c0.07,0,0.12-0.03,0.16-0.1c0.03-0.06,0.06-0.19,0.08-0.37c0.02-0.14,0.03-0.22,0.05-0.25c0.02-0.03,0.05-0.04,0.1-0.04h0.2
		c0.05,0,0.08,0.03,0.1,0.08c0.02,0.06,0.03,0.15,0.03,0.28c0,0.62-0.17,1.11-0.52,1.47s-0.82,0.53-1.43,0.53
		c-0.38,0-0.72-0.09-1.02-0.26c-0.3-0.18-0.54-0.42-0.7-0.74c-0.18,0.32-0.42,0.57-0.74,0.74c-0.32,0.18-0.68,0.26-1.08,0.26
		c-0.58,0-1.02-0.17-1.32-0.52c-0.3-0.34-0.46-0.83-0.46-1.46V7.15c0-0.28-0.04-0.49-0.12-0.64C8.16,6.36,8.02,6.22,7.8,6.1
		C7.74,6.06,7.71,6.04,7.7,6.02C7.69,6,7.68,5.97,7.68,5.94V5.79c0-0.08,0.05-0.12,0.14-0.12H10.93z"/>
	<path class="st0" d="M17.52,5.67c0.39,0,0.71,0.07,0.94,0.21c0.24,0.14,0.4,0.36,0.49,0.65c0.18-0.33,0.43-0.58,0.75-0.75
		s0.67-0.26,1.07-0.26c0.58,0,1.02,0.17,1.32,0.52c0.3,0.34,0.46,0.83,0.46,1.46v3.88c0,0.14-0.03,0.23-0.09,0.29
		s-0.17,0.09-0.32,0.09h-2.16c-0.15,0-0.26-0.03-0.32-0.09s-0.09-0.16-0.09-0.29V7.26c0-0.09-0.02-0.16-0.06-0.22
		c-0.04-0.06-0.1-0.08-0.17-0.08c-0.1,0-0.16,0.03-0.2,0.1v4.33c0,0.14-0.03,0.23-0.09,0.29s-0.17,0.09-0.32,0.09h-2.16
		c-0.15,0-0.26-0.03-0.32-0.09s-0.09-0.16-0.09-0.29V7.15c0-0.28-0.04-0.49-0.12-0.64c-0.08-0.15-0.23-0.29-0.44-0.41
		c-0.06-0.03-0.09-0.06-0.1-0.08C15.49,6,15.48,5.97,15.48,5.94V5.79c0-0.08,0.05-0.12,0.14-0.12H17.52z"/>
	<path class="st0" d="M26.11,5.67c0.15,0,0.26,0.03,0.32,0.09s0.09,0.16,0.09,0.29v3.9c0,0.14,0.01,0.23,0.04,0.28
		c0.02,0.05,0.06,0.07,0.12,0.07c0.07,0,0.12-0.03,0.15-0.08c0.03-0.06,0.06-0.18,0.09-0.38c0.02-0.14,0.03-0.22,0.05-0.25
		c0.02-0.03,0.05-0.04,0.1-0.04h0.2c0.05,0,0.08,0.03,0.1,0.08c0.02,0.06,0.03,0.15,0.03,0.29c0,0.64-0.17,1.13-0.52,1.48
		c-0.34,0.34-0.84,0.52-1.48,0.52c-0.62,0-1.09-0.17-1.42-0.52s-0.5-0.85-0.5-1.49V7.15c0-0.28-0.04-0.49-0.12-0.64
		c-0.08-0.15-0.23-0.29-0.44-0.41c-0.06-0.03-0.09-0.06-0.1-0.08C22.81,6,22.8,5.97,22.8,5.94V5.79c0-0.08,0.05-0.12,0.14-0.12
		H26.11z M23.35,4c0-0.36,0.14-0.65,0.42-0.86c0.28-0.22,0.66-0.32,1.13-0.32c0.47,0,0.85,0.11,1.13,0.32
		c0.28,0.22,0.43,0.5,0.43,0.86c0,0.35-0.14,0.64-0.43,0.85c-0.28,0.22-0.66,0.32-1.13,0.32c-0.47,0-0.85-0.11-1.13-0.32
		C23.49,4.64,23.35,4.35,23.35,4z"/>
	<path class="st0" d="M31.1,11.92c-1.13,0-1.99-0.27-2.57-0.82c-0.59-0.54-0.88-1.34-0.88-2.38s0.29-1.83,0.88-2.38
		c0.59-0.54,1.45-0.82,2.57-0.82c1.13,0,1.99,0.27,2.57,0.82c0.59,0.54,0.88,1.34,0.88,2.38s-0.29,1.83-0.88,2.38
		C33.09,11.64,32.23,11.92,31.1,11.92z M31.1,11.36c0.14,0,0.22-0.11,0.22-0.32V6.41c0-0.22-0.07-0.32-0.22-0.32
		c-0.14,0-0.22,0.11-0.22,0.32v4.63C30.89,11.25,30.96,11.36,31.1,11.36z"/>
	<path class="st0" d="M35.62,5.67c0.69,0,1.16,0.2,1.4,0.61c0.23-0.26,0.49-0.45,0.78-0.57c0.29-0.12,0.62-0.19,1-0.19
		c0.58,0,1.06,0.16,1.44,0.48c0.38,0.32,0.56,0.73,0.56,1.22c0,0.42-0.15,0.75-0.46,1.01c-0.3,0.26-0.7,0.39-1.18,0.39
		c-0.47,0-0.86-0.12-1.16-0.36c-0.3-0.24-0.45-0.54-0.45-0.91c0-0.31,0.11-0.57,0.32-0.77c0.22-0.2,0.49-0.3,0.83-0.3
		c0.02-0.04,0.04-0.08,0.04-0.12c0-0.11-0.08-0.17-0.25-0.17c-0.35,0-0.66,0.13-0.91,0.4S37.2,7,37.2,7.38
		c0,0.32,0.09,0.6,0.27,0.85c0.18,0.24,0.44,0.44,0.77,0.58c0.11,0.05,0.19,0.1,0.22,0.16c0.04,0.06,0.05,0.16,0.05,0.31v2.11
		c0,0.26-0.14,0.38-0.41,0.38h-2.44c-0.25,0-0.37-0.13-0.37-0.38V7.15c0-0.28-0.04-0.49-0.12-0.64c-0.08-0.15-0.23-0.29-0.44-0.41
		c-0.06-0.03-0.09-0.06-0.1-0.08C34.62,6,34.62,5.97,34.62,5.94V5.79c0-0.08,0.05-0.12,0.14-0.12H35.62z"/>
	<path class="st0" d="M48.83,11.92c-0.81,0-1.38-0.33-1.73-1c-0.18,0.34-0.41,0.6-0.68,0.76c-0.27,0.16-0.6,0.24-0.99,0.24
		c-0.55,0-1-0.14-1.33-0.41c-0.34-0.27-0.5-0.63-0.5-1.08c0-0.39,0.14-0.7,0.41-0.93c0.28-0.23,0.7-0.38,1.28-0.46
		c1.47-0.19,2.21-0.75,2.21-1.67c0-0.37-0.13-0.69-0.38-0.95s-0.56-0.4-0.91-0.4c-0.17,0-0.25,0.06-0.25,0.17
		c0,0.04,0.01,0.08,0.04,0.12c0.34,0,0.61,0.1,0.83,0.3c0.22,0.2,0.32,0.46,0.32,0.77c0,0.37-0.15,0.67-0.46,0.91
		c-0.31,0.24-0.7,0.36-1.18,0.36c-0.49,0-0.88-0.12-1.16-0.37c-0.29-0.24-0.43-0.57-0.43-0.97c0-0.54,0.26-0.97,0.78-1.29
		c0.52-0.32,1.21-0.49,2.06-0.49c1.02,0,1.8,0.25,2.33,0.74c0.53,0.5,0.8,1.22,0.8,2.18v1.5c0,0.14,0.01,0.23,0.04,0.28
		c0.02,0.05,0.06,0.07,0.12,0.07c0.07,0,0.12-0.03,0.16-0.1c0.03-0.06,0.06-0.19,0.08-0.37c0.02-0.14,0.03-0.22,0.05-0.25
		c0.02-0.03,0.05-0.04,0.1-0.04h0.2c0.05,0,0.08,0.03,0.1,0.08c0.02,0.06,0.03,0.15,0.03,0.28c0,0.64-0.17,1.13-0.5,1.48
		S49.44,11.92,48.83,11.92z M46.9,9.32c-0.05-0.06-0.11-0.1-0.19-0.1c-0.14,0-0.2,0.08-0.2,0.24v0.77c0,0.16,0.07,0.24,0.2,0.24
		c0.08,0,0.14-0.03,0.19-0.1V9.32z"/>
	<path class="st0" d="M52.2,4.38c0.03-0.15,0.08-0.25,0.15-0.31C52.42,4.02,52.52,4,52.65,4h1.31c0.15,0,0.26,0.03,0.32,0.09
		c0.06,0.06,0.09,0.16,0.09,0.29v1.3h1.19c0.1,0,0.14,0.04,0.14,0.12v0.22c0,0.08-0.05,0.12-0.14,0.12h-1.19V9.9
		c0,0.16,0.02,0.27,0.07,0.32s0.13,0.08,0.25,0.08c0.1,0,0.17-0.03,0.21-0.1s0.08-0.19,0.11-0.37c0.02-0.13,0.03-0.21,0.05-0.24
		c0.02-0.03,0.05-0.05,0.1-0.05h0.19c0.05,0,0.08,0.03,0.1,0.08c0.02,0.06,0.03,0.15,0.03,0.29c0,0.64-0.18,1.13-0.53,1.48
		c-0.35,0.34-0.85,0.52-1.5,0.52c-0.67,0-1.19-0.18-1.57-0.55c-0.37-0.37-0.56-0.88-0.56-1.55V6.13h-0.71
		c-0.1,0-0.14-0.04-0.14-0.12V5.79c0-0.08,0.05-0.12,0.14-0.12h0.05c0.38,0,0.65-0.04,0.83-0.11c0.18-0.07,0.31-0.2,0.41-0.37
		C52.02,5.02,52.11,4.75,52.2,4.38z"/>
	<path class="st0" d="M7.19,18.86c-0.05-0.06-0.12-0.1-0.2-0.1c-0.14,0-0.2,0.09-0.2,0.26v2.92c0,0.15-0.03,0.26-0.1,0.32
		c-0.06,0.06-0.17,0.1-0.32,0.1H5.54c-0.45,0-0.78-0.12-1-0.37c-0.22-0.24-0.32-0.62-0.32-1.12v-2.27c0-0.15,0.03-0.26,0.09-0.32
		c0.06-0.06,0.16-0.1,0.31-0.1h8.35c0.14,0,0.25,0.03,0.31,0.1c0.06,0.06,0.09,0.17,0.09,0.32v2.27c0,0.5-0.11,0.88-0.32,1.12
		c-0.22,0.24-0.55,0.37-1,0.37h-0.82c-0.15,0-0.26-0.03-0.32-0.1c-0.06-0.06-0.1-0.17-0.1-0.32v-2.92c0-0.18-0.07-0.26-0.2-0.26
		c-0.09,0-0.16,0.03-0.2,0.1v6.89c0,0.15-0.03,0.26-0.09,0.32c-0.06,0.06-0.16,0.1-0.31,0.1H7.58c-0.14,0-0.25-0.03-0.31-0.1
		c-0.06-0.06-0.09-0.17-0.09-0.32V18.86z"/>
	<path class="st0" d="M16.67,24.14h-0.44l0.35,1.34c0.05,0.18,0.07,0.31,0.07,0.38c0,0.2-0.12,0.3-0.37,0.3h-3.13
		c-0.16,0-0.28-0.04-0.37-0.11s-0.13-0.18-0.13-0.32c0-0.18,0.18-0.74,0.55-1.68c0.37-0.94,0.99-2.43,1.87-4.48
		c0.05-0.11,0.07-0.21,0.07-0.3c0-0.14-0.03-0.25-0.1-0.35s-0.19-0.2-0.38-0.32c-0.08-0.05-0.12-0.1-0.12-0.16v-0.14
		c0-0.08,0.05-0.12,0.14-0.12h2.78c0.26,0,0.48,0.05,0.64,0.16c0.16,0.1,0.29,0.27,0.38,0.5l2.32,6.1c0.15,0.39,0.23,0.67,0.23,0.84
		c0,0.26-0.13,0.38-0.4,0.38h-3.01c-0.17,0-0.29-0.04-0.37-0.11c-0.08-0.07-0.14-0.22-0.2-0.43L16.67,24.14z M16.08,23.58h0.44
		l-0.84-3.23c-0.04-0.04-0.09-0.06-0.16-0.06s-0.12,0.02-0.16,0.05s-0.06,0.08-0.06,0.14c0,0.03,0,0.07,0.01,0.11
		c0.01,0.04,0.02,0.09,0.04,0.14L16.08,23.58z"/>
	<path class="st0" d="M28,20.35c-0.06-0.04-0.11-0.06-0.17-0.06s-0.1,0.02-0.14,0.05s-0.06,0.08-0.06,0.13
		c0,0.06,0.02,0.16,0.06,0.31l1.14,4.7c0.03,0.15,0.05,0.25,0.05,0.3c0,0.26-0.13,0.38-0.4,0.38h-2.12c-0.17,0-0.29-0.04-0.37-0.11
		c-0.08-0.07-0.14-0.22-0.2-0.43l-1.32-5.28c-0.06-0.04-0.12-0.06-0.19-0.06c-0.05,0-0.09,0.02-0.13,0.05
		c-0.04,0.03-0.05,0.08-0.05,0.13s0.02,0.16,0.06,0.31l1.14,4.7c0.05,0.18,0.07,0.31,0.07,0.38c0,0.2-0.12,0.3-0.37,0.3h-3.01
		c-0.16,0-0.28-0.04-0.37-0.11s-0.13-0.18-0.13-0.32c0-0.18,0.18-0.74,0.55-1.69s0.97-2.44,1.82-4.47c0.05-0.11,0.07-0.21,0.07-0.3
		c0-0.14-0.03-0.25-0.1-0.35s-0.19-0.2-0.38-0.32c-0.08-0.05-0.12-0.1-0.12-0.16v-0.14c0-0.08,0.05-0.12,0.14-0.12h2.3
		c0.32,0,0.57,0.05,0.74,0.15c0.17,0.1,0.31,0.27,0.41,0.51l0.47,1.08l0.2-0.44c0.07-0.17,0.11-0.29,0.11-0.37
		c0-0.1-0.03-0.18-0.08-0.26c-0.05-0.08-0.14-0.16-0.27-0.25c-0.08-0.05-0.12-0.1-0.12-0.16v-0.14c0-0.08,0.05-0.12,0.14-0.12h2.16
		c0.52,0,0.86,0.22,1.02,0.66l2.14,6.1c0.15,0.43,0.23,0.71,0.23,0.84c0,0.26-0.13,0.38-0.4,0.38h-2.65c-0.17,0-0.29-0.04-0.37-0.11
		s-0.14-0.22-0.2-0.43L28,20.35z"/>
	<path class="st0" d="M36.13,18.19c0.14,0,0.25,0.03,0.31,0.1c0.06,0.06,0.09,0.17,0.09,0.32v6.83c0,0.22,0.08,0.32,0.23,0.32
		c0.15,0,0.23-0.11,0.23-0.32v-6.83c0-0.15,0.03-0.26,0.09-0.32c0.06-0.06,0.16-0.1,0.31-0.1h2.65c0.14,0,0.25,0.03,0.31,0.09
		c0.06,0.06,0.1,0.16,0.1,0.29v4.31c0,1.15-0.31,2.02-0.93,2.61c-0.62,0.59-1.54,0.88-2.75,0.88c-1.21,0-2.12-0.29-2.75-0.88
		c-0.62-0.59-0.94-1.46-0.94-2.61v-3.32c0-0.2-0.02-0.35-0.05-0.44c-0.03-0.09-0.09-0.18-0.17-0.25c-0.08-0.08-0.22-0.18-0.41-0.31
		c-0.04-0.02-0.06-0.06-0.06-0.11v-0.14c0-0.08,0.05-0.12,0.14-0.12H36.13z"/>
	<path class="st0" d="M48.5,23.89c0,0.8-0.33,1.41-1,1.84c-0.66,0.43-1.62,0.64-2.86,0.64c-1.15,0-2.03-0.17-2.62-0.52
		s-0.89-0.85-0.89-1.52c0-0.41,0.15-0.74,0.44-1s0.68-0.39,1.14-0.39c0.54,0,0.96,0.12,1.28,0.35s0.47,0.55,0.47,0.95
		c0,0.3-0.1,0.54-0.31,0.72s-0.5,0.27-0.88,0.29c-0.05,0.05-0.07,0.1-0.07,0.16c0,0.06,0.03,0.1,0.08,0.13s0.12,0.05,0.2,0.05
		c0.4,0,0.73-0.13,1-0.38c0.27-0.26,0.4-0.58,0.4-0.96c0-0.31-0.06-0.57-0.19-0.77s-0.33-0.39-0.62-0.55s-0.67-0.32-1.16-0.47
		c-0.55-0.17-0.97-0.42-1.25-0.76c-0.28-0.34-0.42-0.75-0.42-1.24c0-0.48,0.15-0.91,0.45-1.28s0.73-0.67,1.3-0.88
		c0.56-0.22,1.22-0.32,1.97-0.32c1.06,0,1.88,0.18,2.48,0.54c0.6,0.36,0.89,0.86,0.89,1.5c0,0.41-0.15,0.74-0.46,1
		c-0.31,0.26-0.71,0.39-1.19,0.39c-0.5,0-0.91-0.12-1.22-0.36c-0.31-0.24-0.46-0.56-0.46-0.95c0-0.3,0.1-0.54,0.31-0.72
		s0.5-0.27,0.88-0.29c0.05-0.05,0.07-0.1,0.07-0.16c0-0.06-0.03-0.1-0.08-0.13c-0.05-0.03-0.12-0.05-0.2-0.05
		c-0.26,0-0.49,0.06-0.7,0.17c-0.21,0.12-0.38,0.28-0.51,0.48s-0.19,0.43-0.19,0.69c0,0.44,0.15,0.79,0.44,1.06
		c0.3,0.27,0.8,0.5,1.52,0.7c0.66,0.18,1.15,0.44,1.47,0.77C48.34,22.97,48.5,23.39,48.5,23.89z"/>
	<path class="st0" d="M52.76,24.14h-0.44l0.35,1.34c0.05,0.18,0.07,0.31,0.07,0.38c0,0.2-0.12,0.3-0.37,0.3h-3.13
		c-0.16,0-0.28-0.04-0.37-0.11s-0.13-0.18-0.13-0.32c0-0.18,0.18-0.74,0.55-1.68c0.37-0.94,0.99-2.43,1.87-4.48
		c0.05-0.11,0.07-0.21,0.07-0.3c0-0.14-0.03-0.25-0.1-0.35c-0.07-0.1-0.19-0.2-0.38-0.32c-0.08-0.05-0.12-0.1-0.12-0.16v-0.14
		c0-0.08,0.05-0.12,0.14-0.12h2.78c0.26,0,0.48,0.05,0.64,0.16c0.16,0.1,0.29,0.27,0.38,0.5l2.32,6.1c0.15,0.39,0.23,0.67,0.23,0.84
		c0,0.26-0.13,0.38-0.4,0.38h-3.01c-0.17,0-0.29-0.04-0.37-0.11c-0.08-0.07-0.14-0.22-0.2-0.43L52.76,24.14z M52.17,23.58h0.44
		l-0.84-3.23c-0.04-0.04-0.09-0.06-0.16-0.06c-0.06,0-0.12,0.02-0.16,0.05s-0.06,0.08-0.06,0.14c0,0.03,0,0.07,0.01,0.11
		s0.02,0.09,0.04,0.14L52.17,23.58z"/>
</g>
</svg>
