<?xml version="1.0" encoding="UTF-8"?>
<svg xmlns="http://www.w3.org/2000/svg" xmlns:xlink="http://www.w3.org/1999/xlink" width="100pt" height="100pt" viewBox="0 0 100 100" version="1.1">
<g id="surface1">
<path style=" stroke:none;fill-rule:nonzero;fill:rgb(100%,100%,100%);fill-opacity:1;" d="M 10.027344 59.632812 C 13.882812 66.777344 22.019531 70.53125 29.257812 73.414062 C 37.394531 76.683594 46.140625 78.667969 54.859375 78.859375 C 63.191406 79.078125 71.933594 77.574219 79.371094 73.800781 C 87.09375 69.949219 89.589844 59.824219 92.570312 52.386719 C 93.5625 49.890625 91.480469 46.914062 89.085938 46.238281 C 86.316406 45.433594 84.023438 47.230469 83.023438 49.695312 C 81.644531 53.160156 80.265625 56.554688 78.761719 59.917969 C 77.289062 62.996094 76.101562 64.570312 72.925781 65.878906 C 66.871094 68.351562 60.113281 69.148438 53.570312 68.855469 C 47.039062 68.546875 40.566406 66.972656 34.320312 64.785156 C 28.871094 62.800781 21.53125 60.113281 18.554688 54.664062 C 15.570312 49 7.046875 54.058594 10.027344 59.632812 Z M 10.027344 59.632812 "/>
<path style=" stroke:none;fill-rule:nonzero;fill:rgb(100%,100%,100%);fill-opacity:1;" d="M 30.15625 32.847656 C 36.496094 32.847656 36.496094 22.910156 30.15625 22.910156 C 23.707031 22.910156 23.707031 32.847656 30.15625 32.847656 Z M 30.15625 32.847656 "/>
<path style=" stroke:none;fill-rule:nonzero;fill:rgb(100%,100%,100%);fill-opacity:1;" d="M 65.082031 32.941406 C 71.429688 32.941406 71.429688 23.011719 65.082031 23.011719 C 58.640625 23.011719 58.640625 32.941406 65.082031 32.941406 Z M 65.082031 32.941406 "/>
</g>
</svg>
