<?xml version="1.0" encoding="UTF-8"?>
<svg xmlns="http://www.w3.org/2000/svg" xmlns:xlink="http://www.w3.org/1999/xlink" width="100pt" height="100pt" viewBox="0 0 100 100" version="1.1">
<g id="surface1">
<path style=" stroke:none;fill-rule:nonzero;fill:rgb(100%,100%,100%);fill-opacity:1;" d="M 23.019531 9.222656 C 26.089844 22.917969 24.011719 37.699219 24.507812 51.585938 C 24.699219 58.238281 25.003906 64.980469 24.304688 71.628906 C 24.011719 75 23.414062 78.273438 22.421875 81.550781 C 22.21875 82.242188 22.027344 82.835938 21.824219 83.535156 C 23.707031 82.046875 23.808594 81.644531 21.925781 82.441406 C 21.128906 82.835938 20.335938 82.835938 19.546875 82.441406 C 19.050781 81.84375 18.648438 81.25 18.253906 80.558594 C 14.882812 75.195312 6.246094 80.15625 9.71875 85.613281 C 12.003906 89.183594 14.78125 92.261719 19.246094 92.65625 C 22.617188 92.859375 27.484375 91.96875 29.761719 89.183594 C 32.242188 86.308594 32.839844 81.550781 33.4375 77.976562 C 34.226562 73.3125 34.519531 68.652344 34.621094 63.886719 C 34.722656 54.664062 34.023438 45.535156 34.226562 36.3125 C 34.425781 26.289062 34.824219 16.367188 32.535156 6.550781 C 31.148438 0.394531 21.625 2.976562 23.019531 9.222656 Z M 23.019531 9.222656 "/>
<path style=" stroke:none;fill-rule:nonzero;fill:rgb(100%,100%,100%);fill-opacity:1;" d="M 36.707031 8.039062 C 37.101562 21.824219 37.699219 35.511719 38.488281 49.308594 C 38.984375 55.757812 39.480469 62.398438 39.683594 68.949219 C 39.785156 72.21875 39.882812 75.496094 39.882812 78.769531 C 39.882812 81.945312 39.289062 85.417969 39.976562 88.496094 C 40.378906 90.078125 41.867188 91.5625 43.449219 91.96875 C 47.417969 92.960938 52.082031 92.261719 56.253906 92.261719 C 62.601562 92.261719 62.601562 82.339844 56.253906 82.339844 C 53.277344 82.339844 49.007812 83.132812 46.132812 82.441406 C 47.324219 83.535156 48.511719 84.621094 49.601562 85.8125 C 49.007812 83.234375 49.804688 79.164062 49.804688 76.488281 C 49.804688 73.210938 49.703125 69.941406 49.503906 66.667969 C 49.207031 60.3125 48.8125 53.964844 48.410156 47.71875 C 47.617188 34.519531 47.023438 21.230469 46.726562 8.039062 C 46.527344 1.589844 36.605469 1.589844 36.707031 8.039062 Z M 36.707031 8.039062 "/>
<path style=" stroke:none;fill-rule:nonzero;fill:rgb(100%,100%,100%);fill-opacity:1;" d="M 86.703125 17.855469 C 84.621094 12.898438 81.347656 8.929688 76.390625 6.742188 C 73.910156 5.65625 71.132812 4.757812 68.351562 5.253906 C 65.183594 5.75 63.886719 8.136719 62.894531 11.011719 C 58.53125 23.019531 59.726562 36.109375 60.808594 48.609375 C 61.304688 55.058594 61.507812 61.40625 61.800781 67.855469 C 62.105469 73.511719 61.800781 81.449219 65.082031 86.308594 C 68.058594 90.773438 74.503906 91.664062 78.96875 88.890625 C 84.324219 85.613281 85.519531 79.464844 86.308594 73.707031 C 86.605469 71.035156 83.828125 68.746094 81.347656 68.746094 C 78.371094 68.746094 76.683594 71.035156 76.390625 73.707031 C 76.289062 74.605469 75.296875 81.644531 73.117188 80.652344 C 72.21875 80.15625 72.023438 73.414062 71.925781 72.125 C 71.429688 65.476562 71.429688 58.828125 71.035156 52.183594 C 70.539062 45.535156 69.738281 38.890625 69.644531 32.242188 C 69.644531 26.390625 69.546875 17.65625 73.015625 12.695312 C 72.023438 13.492188 71.035156 14.183594 70.042969 14.980469 C 72.714844 14.585938 76.289062 18.351562 77.179688 20.539062 C 78.171875 23.019531 80.457031 24.699219 83.332031 24.011719 C 85.613281 23.3125 87.796875 20.335938 86.703125 17.855469 Z M 86.703125 17.855469 "/>
</g>
</svg>
