<?xml version="1.0" encoding="UTF-8"?>
<svg xmlns="http://www.w3.org/2000/svg" xmlns:xlink="http://www.w3.org/1999/xlink" width="100pt" height="100pt" viewBox="0 0 100 100" version="1.1">
<g id="surface1">
<path style=" stroke:none;fill-rule:nonzero;fill:rgb(100%,100%,100%);fill-opacity:1;" d="M 3.574219 32.34375 C 3.867188 35.117188 5.160156 37.699219 7.835938 38.984375 C 9.921875 39.976562 12.199219 40.378906 14.484375 40.574219 C 16.664062 40.875 18.949219 40.472656 20.832031 39.386719 C 23.113281 37.898438 24.304688 35.714844 25.296875 33.335938 C 28.273438 25.996094 29.367188 17.757812 28.566406 9.820312 C 28.273438 7.238281 26.492188 4.757812 23.609375 4.859375 C 21.128906 4.960938 18.351562 7.046875 18.648438 9.820312 C 18.949219 12.695312 18.949219 15.671875 18.75 18.554688 C 18.75 18.949219 18.648438 19.34375 18.648438 19.742188 C 18.648438 19.839844 18.554688 20.734375 18.554688 20.238281 C 18.648438 19.640625 18.453125 20.832031 18.453125 20.933594 C 18.351562 21.230469 18.351562 21.625 18.253906 22.027344 C 17.957031 23.414062 17.65625 24.902344 17.261719 26.289062 C 16.863281 27.578125 16.367188 28.972656 15.871094 30.257812 C 15.378906 31.542969 16.167969 29.761719 15.773438 30.460938 C 15.773438 30.550781 15.378906 31.351562 15.277344 31.351562 C 15.175781 31.351562 15.871094 30.753906 15.972656 30.753906 C 15.175781 31.351562 16.46875 30.753906 15.972656 30.753906 C 15.082031 30.855469 15.773438 31.046875 15.972656 30.753906 C 15.871094 30.855469 15.175781 30.753906 14.980469 30.753906 C 14.882812 30.753906 14.679688 30.753906 14.585938 30.753906 C 14.183594 30.753906 14.285156 30.753906 14.882812 30.753906 C 14.980469 30.855469 14.386719 30.652344 14.285156 30.652344 C 14.183594 30.652344 12.105469 30.15625 12.105469 30.15625 C 12.199219 29.964844 12.898438 30.550781 12.898438 30.550781 C 12.601562 30.257812 12.601562 30.257812 12.796875 30.550781 C 13.191406 31.046875 13.394531 31.644531 13.394531 32.34375 C 13.292969 30.957031 12.996094 29.863281 12.003906 28.769531 C 11.207031 27.980469 9.71875 27.28125 8.535156 27.382812 C 6.152344 27.484375 3.175781 29.558594 3.574219 32.34375 Z M 3.574219 32.34375 "/>
<path style=" stroke:none;fill-rule:nonzero;fill:rgb(100%,100%,100%);fill-opacity:1;" d="M 37.496094 7.441406 C 34.226562 12.105469 32.839844 17.957031 32.34375 23.609375 C 32.140625 26.492188 32.140625 29.660156 33.132812 32.34375 C 34.519531 36.007812 37.304688 38.792969 41.464844 38.890625 C 43.054688 38.890625 44.742188 38.589844 46.230469 38.296875 C 47.914062 37.992188 49.503906 37.496094 50.992188 36.808594 C 54.269531 35.21875 55.757812 32.140625 57.042969 29.0625 C 59.230469 23.707031 60.222656 16.964844 56.648438 11.90625 C 52.78125 6.449219 46.230469 4.664062 39.882812 5.75 C 37.304688 6.152344 35.613281 9.425781 36.410156 11.804688 C 37.304688 14.585938 39.785156 15.671875 42.558594 15.277344 C 42.457031 15.277344 41.371094 15.378906 42.261719 15.277344 C 42.457031 15.277344 42.558594 15.277344 42.757812 15.277344 C 43.15625 15.277344 43.550781 15.277344 43.945312 15.277344 C 44.148438 15.277344 45.433594 15.378906 44.644531 15.277344 C 43.851562 15.175781 44.644531 15.277344 44.84375 15.277344 C 45.140625 15.378906 45.339844 15.378906 45.636719 15.476562 C 45.835938 15.671875 46.230469 15.773438 46.628906 15.871094 C 47.121094 16.074219 46.230469 15.671875 46.230469 15.671875 C 46.230469 15.671875 46.828125 15.972656 46.828125 15.972656 C 47.121094 16.167969 47.417969 16.367188 47.820312 16.570312 C 48.316406 16.863281 47.417969 16.269531 47.417969 16.269531 C 47.417969 16.269531 48.015625 16.765625 48.015625 16.863281 C 48.113281 16.964844 48.214844 17.066406 48.316406 17.261719 C 49.007812 17.957031 48.113281 17.066406 48.113281 17.066406 C 48.214844 17.066406 48.609375 17.957031 48.710938 18.152344 C 49.105469 18.648438 48.609375 17.757812 48.609375 17.757812 C 48.710938 17.757812 48.8125 18.351562 48.8125 18.453125 C 48.90625 18.75 48.90625 18.949219 49.007812 19.246094 C 49.207031 20.042969 49.007812 19.144531 49.007812 19.050781 C 49.105469 19.050781 49.007812 20.238281 49.007812 20.4375 C 49.007812 20.734375 49.007812 20.933594 49.007812 21.230469 C 49.007812 21.824219 49.105469 20.933594 49.105469 20.933594 C 49.105469 22.027344 48.609375 23.3125 48.214844 24.304688 C 48.113281 24.902344 47.914062 25.296875 47.71875 25.792969 C 47.519531 26.289062 47.71875 25.691406 47.820312 25.59375 C 47.617188 25.894531 47.519531 26.1875 47.417969 26.390625 C 47.222656 26.785156 47.023438 27.179688 46.828125 27.578125 C 46.828125 27.578125 46.527344 28.074219 46.527344 28.074219 C 46.921875 27.675781 46.921875 27.578125 46.726562 27.777344 C 46.628906 27.878906 46.527344 27.980469 46.425781 28.074219 C 46.03125 28.566406 47.121094 27.675781 46.527344 27.980469 C 46.03125 28.273438 46.726562 27.980469 46.828125 27.980469 C 46.425781 28.171875 45.929688 28.273438 45.433594 28.375 C 44.441406 28.667969 43.355469 28.871094 42.261719 28.972656 C 43.652344 28.769531 41.371094 29.0625 41.371094 28.972656 C 41.566406 28.769531 42.953125 29.558594 42.164062 29.0625 C 43.054688 29.660156 42.660156 29.46875 42.457031 29.164062 C 42.558594 29.367188 42.953125 30.054688 42.660156 29.367188 C 42.558594 29.265625 42.261719 28.769531 42.558594 29.367188 C 42.953125 29.964844 42.457031 29.164062 42.457031 28.972656 C 42.363281 28.667969 42.363281 28.476562 42.261719 28.273438 C 42.261719 28.171875 42.0625 27.179688 42.164062 27.777344 C 42.261719 28.375 42.164062 27.578125 42.164062 27.578125 C 42.164062 27.28125 42.164062 26.988281 42.164062 26.683594 C 42.164062 25.59375 42.261719 24.507812 42.363281 23.414062 C 42.363281 23.113281 42.457031 22.917969 42.457031 22.617188 C 42.457031 22.320312 42.363281 21.53125 42.457031 22.523438 C 42.457031 22.027344 42.660156 21.429688 42.757812 20.933594 C 42.859375 19.839844 43.15625 18.75 43.449219 17.757812 C 43.652344 17.261719 43.75 16.765625 43.945312 16.269531 C 44.246094 15.378906 43.945312 16.167969 43.945312 16.367188 C 44.046875 16.167969 44.148438 15.871094 44.246094 15.671875 C 44.742188 14.585938 45.339844 13.59375 46.132812 12.601562 C 47.617188 10.316406 46.527344 6.84375 44.347656 5.65625 C 41.765625 4.261719 39.085938 5.160156 37.496094 7.441406 Z M 37.496094 7.441406 "/>
<path style=" stroke:none;fill-rule:nonzero;fill:rgb(100%,100%,100%);fill-opacity:1;" d="M 84.125 4.363281 C 79.464844 4.859375 74.800781 6.054688 70.832031 8.632812 C 67.855469 10.515625 66.570312 13.6875 67.460938 17.066406 C 68.058594 19.34375 69.738281 21.328125 71.53125 22.816406 C 74.902344 25.5 78.769531 26.785156 83.039062 27.578125 C 83.433594 27.578125 83.828125 27.675781 84.226562 27.777344 C 84.425781 27.777344 84.527344 27.878906 84.71875 27.878906 C 85.519531 28.074219 84.425781 27.878906 84.425781 27.777344 C 84.621094 27.578125 85.417969 28.667969 84.527344 27.675781 C 83.828125 26.988281 84.125 27.082031 84.324219 27.484375 C 84.125 27.179688 83.929688 26.785156 83.929688 26.492188 C 83.929688 26.289062 84.226562 25.5 83.929688 26.289062 C 83.828125 26.390625 83.628906 26.886719 83.929688 26.390625 C 84.324219 25.792969 82.9375 27.484375 83.929688 26.492188 C 83.628906 26.785156 83.332031 27.082031 83.039062 27.28125 C 82.441406 27.878906 82.9375 27.382812 83.132812 27.28125 C 82.9375 27.484375 82.738281 27.578125 82.542969 27.777344 C 82.046875 28.074219 81.550781 28.273438 81.054688 28.476562 C 80.851562 28.566406 80.15625 28.769531 81.148438 28.476562 C 80.953125 28.566406 80.652344 28.667969 80.457031 28.769531 C 79.265625 29.164062 78.171875 29.46875 76.984375 29.660156 C 76.785156 29.761719 76.488281 29.761719 76.289062 29.863281 C 75.496094 29.964844 77.480469 29.761719 75.992188 29.863281 C 75.496094 29.863281 74.902344 29.964844 74.40625 29.964844 C 73.808594 29.964844 73.210938 29.964844 72.519531 29.964844 C 72.320312 29.964844 72.023438 29.964844 71.824219 29.964844 C 71.722656 29.964844 70.234375 29.761719 71.328125 29.964844 C 69.941406 29.660156 68.746094 29.660156 67.5625 30.359375 C 66.570312 30.957031 65.578125 32.140625 65.273438 33.335938 C 64.6875 35.714844 65.972656 39.085938 68.746094 39.386719 C 73.613281 40.078125 78.574219 39.976562 83.332031 38.195312 C 87.796875 36.605469 92.554688 33.4375 93.75 28.476562 C 94.246094 25.691406 93.546875 22.421875 91.269531 20.539062 C 89.582031 19.050781 87.503906 18.253906 85.316406 17.957031 C 84.425781 17.757812 83.535156 17.65625 82.738281 17.359375 C 82.242188 17.261719 81.84375 17.160156 81.347656 17.066406 C 81.148438 16.964844 80.953125 16.863281 80.851562 16.863281 C 80.851562 16.863281 79.660156 16.46875 80.355469 16.664062 C 80.953125 16.863281 80.355469 16.664062 80.257812 16.570312 C 79.960938 16.46875 79.761719 16.367188 79.464844 16.269531 C 79.070312 16.074219 78.667969 15.773438 78.371094 15.578125 C 78.171875 15.476562 78.078125 15.378906 77.878906 15.277344 C 77.976562 15.277344 78.472656 15.871094 78.171875 15.476562 C 77.777344 15.082031 77.382812 14.679688 76.984375 14.386719 C 76.589844 13.890625 77.382812 15.082031 77.085938 14.484375 C 77.085938 14.285156 76.785156 13.59375 76.886719 14.183594 C 76.886719 14.285156 76.984375 14.386719 76.984375 14.386719 C 76.886719 13.890625 76.886719 13.988281 76.984375 14.882812 C 77.085938 15.378906 76.984375 15.871094 76.589844 16.269531 C 76.488281 16.664062 76.289062 16.863281 75.992188 17.066406 C 75.894531 17.066406 75.894531 17.160156 75.792969 17.160156 C 75.992188 17.066406 76.1875 16.964844 76.390625 16.863281 C 76.683594 16.664062 76.886719 16.570312 77.179688 16.46875 C 77.675781 16.167969 78.273438 15.972656 78.769531 15.671875 C 79.464844 15.378906 78.078125 15.871094 78.769531 15.671875 C 79.070312 15.578125 79.363281 15.476562 79.660156 15.378906 C 80.15625 15.175781 80.753906 14.980469 81.347656 14.882812 C 81.945312 14.679688 82.542969 14.585938 83.039062 14.484375 C 83.234375 14.484375 83.433594 14.386719 83.730469 14.386719 C 82.636719 14.585938 84.03125 14.386719 84.226562 14.386719 C 86.703125 14.089844 89.285156 12.199219 89.085938 9.324219 C 88.992188 6.84375 86.90625 4.070312 84.125 4.363281 Z M 84.125 4.363281 "/>
<path style=" stroke:none;fill-rule:nonzero;fill:rgb(100%,100%,100%);fill-opacity:1;" d="M 1.589844 52.78125 C 2.582031 60.617188 3.574219 68.453125 2.875 76.289062 C 2.582031 80.558594 1.691406 87.007812 7.144531 88.191406 C 9.128906 88.589844 11.410156 88.394531 13.492188 88.496094 C 15.476562 88.496094 17.460938 88.496094 19.34375 88.589844 C 21.925781 88.589844 24.40625 86.308594 24.304688 83.628906 C 24.203125 80.953125 22.121094 78.667969 19.34375 78.667969 C 17.460938 78.667969 15.578125 78.667969 13.789062 78.574219 C 12.898438 78.574219 12.003906 78.574219 11.113281 78.574219 C 10.710938 78.574219 10.316406 78.574219 9.921875 78.574219 C 9.625 78.574219 9.324219 78.574219 9.03125 78.574219 C 8.230469 78.574219 8.632812 78.667969 10.316406 78.96875 C 10.914062 79.566406 11.507812 80.15625 12.105469 80.753906 C 12.402344 82.140625 12.5 82.339844 12.402344 81.347656 C 12.402344 81.148438 12.402344 80.953125 12.402344 80.753906 C 12.402344 80.0625 12.402344 79.363281 12.5 78.769531 C 12.695312 77.480469 12.796875 76.289062 12.898438 75.101562 C 13.097656 72.621094 13.097656 70.140625 12.996094 67.660156 C 12.796875 62.703125 12.199219 57.742188 11.507812 52.78125 C 11.207031 50.199219 9.425781 47.71875 6.550781 47.820312 C 4.167969 47.914062 1.285156 50 1.589844 52.78125 Z M 1.589844 52.78125 "/>
<path style=" stroke:none;fill-rule:nonzero;fill:rgb(100%,100%,100%);fill-opacity:1;" d="M 17.757812 62.207031 C 14.980469 61.902344 12.199219 62.207031 9.324219 62.601562 C 8.726562 62.703125 8.136719 62.996094 7.640625 63.492188 C 7.144531 63.886719 6.648438 64.28125 6.347656 64.878906 C 5.953125 65.375 5.851562 66.074219 5.75 66.667969 C 5.65625 67.359375 5.65625 67.957031 5.851562 68.652344 C 6.246094 69.839844 6.945312 71.035156 8.136719 71.628906 C 8.535156 71.824219 8.929688 71.925781 9.324219 72.125 C 10.214844 72.320312 11.113281 72.320312 12.003906 72.125 C 12.199219 72.125 12.5 72.023438 12.695312 72.023438 C 12.199219 72.125 11.804688 72.125 11.308594 72.21875 C 13.394531 71.925781 15.578125 71.925781 17.65625 72.125 C 18.351562 72.125 18.949219 72.023438 19.546875 71.722656 C 20.136719 71.53125 20.734375 71.226562 21.128906 70.730469 C 21.625 70.234375 21.925781 69.738281 22.121094 69.148438 C 22.523438 68.453125 22.714844 67.753906 22.714844 67.164062 C 22.617188 65.871094 22.21875 64.484375 21.230469 63.59375 C 20.933594 63.289062 20.539062 63.097656 20.238281 62.792969 C 19.445312 62.398438 18.648438 62.207031 17.757812 62.207031 Z M 17.757812 62.207031 "/>
<path style=" stroke:none;fill-rule:nonzero;fill:rgb(100%,100%,100%);fill-opacity:1;" d="M 18.351562 46.628906 C 17.957031 46.726562 17.460938 46.828125 17.066406 46.828125 C 17.460938 46.828125 17.957031 46.726562 18.351562 46.628906 C 14.183594 47.222656 9.921875 46.132812 5.75 47.71875 C 4.566406 48.214844 3.472656 48.8125 2.773438 50 C 2.1875 50.992188 1.984375 52.578125 2.378906 53.773438 C 2.773438 54.957031 3.472656 56.152344 4.664062 56.75 C 5.75 57.339844 7.238281 57.742188 8.535156 57.246094 C 9.222656 56.941406 9.921875 56.75 10.710938 56.648438 C 10.316406 56.75 9.820312 56.75 9.425781 56.84375 C 11.113281 56.546875 12.898438 56.648438 14.679688 56.75 C 16.765625 56.84375 18.949219 56.648438 21.035156 56.152344 C 23.515625 55.554688 25.296875 52.578125 24.40625 50.097656 C 23.609375 47.417969 21.035156 45.929688 18.351562 46.628906 Z M 18.351562 46.628906 "/>
<path style=" stroke:none;fill-rule:nonzero;fill:rgb(100%,100%,100%);fill-opacity:1;" d="M 30.855469 51.6875 C 30.652344 57.042969 32.34375 62.296875 32.445312 67.359375 C 32.535156 72.621094 31.542969 77.777344 31.847656 83.132812 C 31.949219 85.710938 34.023438 88.191406 36.808594 88.09375 C 39.386719 88 41.960938 85.914062 41.765625 83.132812 C 41.464844 77.777344 42.457031 72.621094 42.363281 67.359375 C 42.261719 61.800781 40.574219 57.042969 40.773438 51.6875 C 40.875 49.105469 38.394531 46.628906 35.816406 46.726562 C 33.03125 46.828125 30.957031 48.90625 30.855469 51.6875 Z M 30.855469 51.6875 "/>
<path style=" stroke:none;fill-rule:nonzero;fill:rgb(100%,100%,100%);fill-opacity:1;" d="M 38.488281 56.050781 C 37.203125 56.648438 38.195312 56.152344 38.488281 56.050781 C 38.792969 55.949219 39.085938 55.851562 39.386719 55.757812 C 39.882812 55.554688 40.472656 55.453125 41.070312 55.261719 C 42.164062 54.957031 43.355469 54.765625 44.542969 54.5625 C 44.148438 54.664062 43.652344 54.664062 43.253906 54.765625 C 45.535156 54.460938 47.820312 54.460938 50.097656 54.664062 C 49.601562 54.5625 49.207031 54.5625 48.710938 54.460938 C 49.308594 54.5625 49.898438 54.957031 48.710938 54.269531 C 49.402344 54.664062 49.105469 54.363281 47.71875 53.175781 C 47.914062 53.570312 47.914062 53.371094 47.519531 52.679688 C 47.617188 53.371094 47.914062 54.066406 48.015625 54.765625 C 48.015625 54.269531 47.914062 53.867188 47.914062 53.371094 C 48.015625 54.269531 48.015625 55.160156 47.914062 56.050781 C 48.015625 55.65625 48.015625 55.160156 48.113281 54.765625 C 47.914062 55.453125 47.820312 56.152344 47.519531 56.84375 C 47.519531 57.042969 47.417969 57.144531 47.417969 57.339844 C 47.222656 57.835938 47.222656 57.640625 47.519531 56.941406 C 47.417969 57.144531 47.324219 57.4375 47.222656 57.640625 C 47.023438 57.933594 46.828125 58.238281 46.628906 58.53125 C 46.527344 58.734375 46.425781 58.828125 46.332031 59.027344 C 46.828125 58.332031 46.921875 58.238281 46.628906 58.632812 C 46.132812 59.128906 45.636719 59.625 45.140625 60.121094 C 44.246094 60.910156 45.929688 59.625 45.140625 60.121094 C 44.84375 60.3125 44.542969 60.515625 44.246094 60.71875 C 43.945312 60.910156 43.652344 61.113281 43.253906 61.214844 C 43.15625 61.304688 41.960938 61.800781 42.859375 61.40625 C 43.75 61.011719 42.558594 61.507812 42.457031 61.507812 C 42.0625 61.710938 41.667969 61.800781 41.371094 61.902344 C 40.675781 62.105469 39.882812 62.207031 39.1875 62.296875 C 39.582031 62.207031 40.078125 62.207031 40.472656 62.105469 C 40.378906 62.105469 40.28125 62.105469 40.179688 62.105469 C 38.890625 62.296875 37.699219 62.601562 36.707031 63.59375 C 35.816406 64.484375 35.21875 65.871094 35.21875 67.164062 C 35.320312 68.453125 35.714844 69.738281 36.707031 70.636719 C 37.597656 71.429688 38.984375 72.21875 40.179688 72.125 C 43.652344 71.722656 47.121094 70.730469 50 68.746094 C 53.277344 66.46875 55.554688 63.59375 56.941406 60.019531 C 58.136719 56.941406 58.238281 53.074219 57.144531 50 C 56.152344 47.417969 54.363281 45.339844 51.488281 44.9375 C 49.601562 44.644531 47.71875 44.542969 45.929688 44.542969 C 41.566406 44.742188 37.496094 45.835938 33.527344 47.519531 C 32.445312 48.015625 31.542969 49.402344 31.25 50.496094 C 30.957031 51.6875 31.046875 53.175781 31.746094 54.269531 C 32.445312 55.355469 33.4375 56.253906 34.722656 56.546875 C 36.109375 56.84375 37.203125 56.648438 38.488281 56.050781 Z M 38.488281 56.050781 "/>
<path style=" stroke:none;fill-rule:nonzero;fill:rgb(100%,100%,100%);fill-opacity:1;" d="M 61.507812 51.292969 C 61.011719 62.398438 61.304688 73.414062 62.601562 84.425781 C 62.894531 87.007812 64.6875 89.488281 67.5625 89.386719 C 70.042969 89.285156 72.917969 87.199219 72.519531 84.425781 C 71.226562 73.414062 70.933594 62.398438 71.429688 51.292969 C 71.53125 48.710938 69.050781 46.230469 66.46875 46.332031 C 63.695312 46.425781 61.609375 48.511719 61.507812 51.292969 Z M 61.507812 51.292969 "/>
<path style=" stroke:none;fill-rule:nonzero;fill:rgb(100%,100%,100%);fill-opacity:1;" d="M 66.667969 70.539062 C 68.058594 70.730469 69.445312 70.933594 70.832031 70.832031 C 71.925781 70.832031 72.917969 70.636719 74.007812 70.539062 C 76.09375 70.234375 78.171875 70.042969 80.257812 70.234375 C 79.761719 70.234375 79.363281 70.140625 78.867188 70.140625 C 79.164062 70.140625 79.464844 70.234375 79.761719 70.335938 C 81.148438 70.539062 82.441406 70.4375 83.628906 69.839844 C 84.621094 69.242188 85.613281 68.058594 85.914062 66.863281 C 86.511719 64.382812 85.117188 61.304688 82.441406 60.71875 C 79.859375 60.222656 77.382812 60.222656 74.800781 60.515625 C 72.621094 60.808594 70.4375 61.113281 68.15625 60.808594 C 68.554688 60.910156 69.050781 60.910156 69.445312 61.011719 C 69.34375 61.011719 69.242188 61.011719 69.242188 61.011719 C 67.957031 60.808594 66.667969 60.71875 65.476562 61.507812 C 64.484375 62.105469 63.492188 63.289062 63.199219 64.484375 C 62.894531 65.769531 62.996094 67.164062 63.695312 68.25 C 64.382812 69.242188 65.375 70.335938 66.667969 70.539062 Z M 66.667969 70.539062 "/>
<path style=" stroke:none;fill-rule:nonzero;fill:rgb(100%,100%,100%);fill-opacity:1;" d="M 80.851562 49.105469 C 81.054688 52.183594 81.148438 55.261719 81.054688 58.332031 C 80.953125 61.214844 80.457031 64.089844 80.355469 66.964844 C 79.960938 73.210938 83.332031 79.070312 85.519531 84.71875 C 86.511719 87.199219 88.789062 88.992188 91.664062 88.191406 C 94.042969 87.503906 96.128906 84.621094 95.136719 82.046875 C 93.953125 79.363281 92.859375 76.589844 91.765625 73.808594 C 91.269531 72.519531 90.671875 71.226562 90.378906 69.839844 C 90.175781 68.746094 90.175781 67.460938 90.277344 66.265625 C 90.773438 60.515625 91.167969 54.957031 90.773438 49.105469 C 90.574219 46.425781 88.6875 44.148438 85.8125 44.148438 C 83.234375 44.148438 80.652344 46.425781 80.851562 49.105469 Z M 80.851562 49.105469 "/>
<path style=" stroke:none;fill-rule:nonzero;fill:rgb(100%,100%,100%);fill-opacity:1;" d="M 12.796875 40.28125 C 19.144531 40.28125 19.144531 30.359375 12.796875 30.359375 C 6.449219 30.359375 6.449219 40.28125 12.796875 40.28125 Z M 12.796875 40.28125 "/>
</g>
</svg>
