<?xml version="1.0" encoding="UTF-8"?>
<svg xmlns="http://www.w3.org/2000/svg" xmlns:xlink="http://www.w3.org/1999/xlink" width="100pt" height="100pt" viewBox="0 0 100 100" version="1.1">
<g id="surface1">
<path style=" stroke:none;fill-rule:nonzero;fill:rgb(100%,100%,100%);fill-opacity:1;" d="M 86.308594 70.933594 C 81.148438 60.019531 76.289062 49.007812 70.730469 38.296875 C 68.15625 33.335938 65.476562 28.566406 62.296875 24.011719 C 59.324219 19.546875 56.050781 15.175781 54.269531 10.019531 C 53.175781 6.945312 48.511719 4.757812 46.03125 7.9375 C 37.402344 18.847656 33.335938 31.746094 27.777344 44.246094 C 21.726562 57.539062 13.6875 69.839844 4.859375 81.550781 C 2.683594 84.425781 5.65625 89.285156 9.128906 88.992188 C 28.375 87.101562 43.75 75.992188 59.027344 65.082031 C 66.667969 59.726562 74.800781 55.355469 82.542969 50.199219 C 89.582031 45.535156 95.441406 39.683594 98.113281 31.542969 C 99.105469 28.476562 96.433594 25.195312 93.355469 25.296875 C 78.273438 25.5 63.199219 25.792969 48.113281 26.089844 C 40.675781 26.289062 33.132812 26.390625 25.59375 26.585938 C 18.648438 26.683594 11.113281 26.089844 4.363281 28.273438 C 1.488281 29.265625 -0.394531 32.738281 1.386719 35.511719 C 9.921875 48.710938 22.917969 57.4375 36.210938 65.375 C 50.796875 74.007812 66.171875 83.535156 82.339844 89.085938 C 85.117188 90.078125 88.992188 87.402344 88.589844 84.324219 C 88.191406 80.652344 87.597656 76.886719 86.90625 73.210938 C 85.710938 66.964844 76.1875 69.546875 77.382812 75.792969 C 77.878906 78.574219 78.371094 81.347656 78.667969 84.226562 C 80.753906 82.636719 82.835938 81.054688 84.921875 79.464844 C 70.140625 74.40625 56.050781 65.476562 42.558594 57.640625 C 30.359375 50.394531 17.757812 42.660156 9.921875 30.550781 C 8.929688 32.941406 7.9375 35.417969 6.945312 37.800781 C 13.59375 35.714844 21.328125 36.605469 28.171875 36.410156 C 35.417969 36.3125 42.660156 36.109375 49.898438 36.007812 C 64.382812 35.714844 78.867188 35.417969 93.355469 35.21875 C 91.765625 33.03125 90.078125 30.957031 88.496094 28.871094 C 86.109375 36.3125 79.363281 40.773438 72.917969 44.542969 C 65.972656 48.609375 59.230469 52.78125 52.679688 57.4375 C 39.582031 66.863281 25.792969 77.480469 9.128906 79.070312 C 10.515625 81.550781 12.003906 84.03125 13.394531 86.511719 C 21.925781 75.296875 29.761719 63.492188 35.714844 50.695312 C 41.171875 38.691406 44.742188 25.398438 52.976562 14.882812 C 50.300781 14.183594 47.519531 13.492188 44.742188 12.695312 C 48.410156 23.3125 56.253906 31.949219 61.40625 41.765625 C 67.257812 52.875 72.320312 64.484375 77.675781 75.894531 C 80.457031 81.644531 88.992188 76.683594 86.308594 70.933594 Z M 86.308594 70.933594 "/>
</g>
</svg>
