<svg id="Layer_1" data-name="Layer 1" xmlns="http://www.w3.org/2000/svg" x="0px" y="0px" height="150px" width="150px" viewBox="0 0 1553.32 260"><defs><style>.cls-1{fill:#0d89c5;}</style></defs><path class="cls-1" d="M223.34,1066.67v-10q10.83-15,21.46-27.88t20.25-24.37q9.61-11.5,17.87-21.92A187.87,187.87,0,0,0,297.17,962a105.94,105.94,0,0,0,9.42-20.17A64.64,64.64,0,0,0,310,920.92a50.87,50.87,0,0,0-2.46-16.67A34.71,34.71,0,0,0,301,892.5a25.83,25.83,0,0,0-9.58-6.92A29.56,29.56,0,0,0,280,883.33a36.25,36.25,0,0,0-12.63,1.92,23.34,23.34,0,0,0-8.25,5,17.7,17.7,0,0,0-4.46,6.83,22.58,22.58,0,0,0-1.33,7.54,24.62,24.62,0,0,0,.5,5.25,25,25,0,0,0,1.25,4.09,36.66,36.66,0,0,0,1.58,3.37q.84,1.55,1.59,3.21a23,23,0,0,1,1.25,3.62,18.73,18.73,0,0,1,.5,4.55q0,6.75-4.34,10.71t-11.83,4a18.06,18.06,0,0,1-7.46-1.66,19.63,19.63,0,0,1-6.58-4.84,24.81,24.81,0,0,1-4.67-7.79,29.07,29.07,0,0,1-1.79-10.54,38.93,38.93,0,0,1,2.25-13.42,40.18,40.18,0,0,1,6.17-11.16,45.11,45.11,0,0,1,9.29-8.88,57.19,57.19,0,0,1,11.66-6.46A69.48,69.48,0,0,1,266,874.67,74.4,74.4,0,0,1,280,873.33a84.38,84.38,0,0,1,16.7,1.63,69.86,69.86,0,0,1,15.05,4.79,62.49,62.49,0,0,1,12.83,7.75,49.94,49.94,0,0,1,10,10.5,47.9,47.9,0,0,1,6.46,13.12,51,51,0,0,1,2.29,15.55,54,54,0,0,1-2.29,16.12,61.25,61.25,0,0,1-6.29,13.88,78.53,78.53,0,0,1-9.5,12.37,163.41,163.41,0,0,1-12,11.54q-6.51,5.67-13.67,11.46t-14.5,12.13q-7.33,6.33-14.58,13.5a158.41,158.41,0,0,0-13.84,15.66H320a19.5,19.5,0,0,0,8.54-1.71,17.37,17.37,0,0,0,5.91-4.54,21.39,21.39,0,0,0,3.71-6.41,34.17,34.17,0,0,0,1.84-7.34h6.66l-7.5,53.34Z" transform="translate(-223.34 -870)"/><path class="cls-1" d="M446.67,1070a77.41,77.41,0,0,1-23.83-3.46,65.44,65.44,0,0,1-19.25-9.79,67.36,67.36,0,0,1-14.83-15.29,88.53,88.53,0,0,1-10.5-19.92,119.64,119.64,0,0,1-6.21-23.66,173.46,173.46,0,0,1,0-53,118.08,118.08,0,0,1,6.21-23.54,87.49,87.49,0,0,1,10.5-19.75,65.11,65.11,0,0,1,34.08-24.79,84.59,84.59,0,0,1,47.62,0,65.82,65.82,0,0,1,19.3,9.67,66.56,66.56,0,0,1,14.83,15.12,88.3,88.3,0,0,1,10.5,19.75,118.08,118.08,0,0,1,6.21,23.54,173.46,173.46,0,0,1,0,53,119.64,119.64,0,0,1-6.21,23.66,89.35,89.35,0,0,1-10.5,19.92,67.57,67.57,0,0,1-14.83,15.29,65.36,65.36,0,0,1-19.3,9.79A77.46,77.46,0,0,1,446.67,1070Zm0-10q11.25,0,18.92-6.54t12.33-18.25a114.36,114.36,0,0,0,6.71-27.92,286.42,286.42,0,0,0,2-35.62q0-12.92-.87-24.5A178,178,0,0,0,483,925.79a104.31,104.31,0,0,0-5-17.67,50.14,50.14,0,0,0-7.54-13.37,31.45,31.45,0,0,0-10.33-8.46,31.7,31.7,0,0,0-26.75,0A31.48,31.48,0,0,0,423,894.75a50.41,50.41,0,0,0-7.54,13.37,106.19,106.19,0,0,0-5,17.67,176.13,176.13,0,0,0-2.83,21.38q-.89,11.58-.88,24.5a286.42,286.42,0,0,0,2,35.62,114.36,114.36,0,0,0,6.71,27.92q4.66,11.7,12.34,18.25T446.67,1060Z" transform="translate(-223.34 -870)"/><path class="cls-1" d="M600.5,1108.67a13,13,0,0,1,.79-4.42,11,11,0,0,1,2.42-3.87,11.26,11.26,0,0,1,4.17-2.71,16.14,16.14,0,0,1,6-1,15.86,15.86,0,0,1,7.16,1.5,22.79,22.79,0,0,1,5.38,3.71,45.21,45.21,0,0,1,4.46,4.79,48.05,48.05,0,0,0,4.41,4.79,23.61,23.61,0,0,0,5.17,3.71,14.25,14.25,0,0,0,6.75,1.5,23.26,23.26,0,0,0,6.79-1.09,19.06,19.06,0,0,0,7.29-4.62,46.67,46.67,0,0,0,7.67-10.17,110.69,110.69,0,0,0,8-17.71l2.58-7.16L630.92,964.25a69.2,69.2,0,0,0-5.71-10.75,35.49,35.49,0,0,0-6.62-7.58,24.82,24.82,0,0,0-7.75-4.46,27.69,27.69,0,0,0-9.17-1.46v-6.67H675V940q-6.24,0-9.71,3.46t-3.45,10.21a37.41,37.41,0,0,0,1.29,9.08,71,71,0,0,0,4,11.25l27.25,61.33,24.42-66.75a43.87,43.87,0,0,0,3.08-14.75q0-6.57-3.42-10.21T708.34,940v-6.67h60V940a32.64,32.64,0,0,0-9.8,1.5,28,28,0,0,0-9.12,5,40.8,40.8,0,0,0-8.13,9,63.29,63.29,0,0,0-6.79,13.62L691.09,1086.5A98,98,0,0,1,681,1107a54.4,54.4,0,0,1-12.33,13.42,44.14,44.14,0,0,1-15,7.37,68.13,68.13,0,0,1-18,2.25,62.94,62.94,0,0,1-14.71-1.58,38.36,38.36,0,0,1-11.08-4.38,20.68,20.68,0,0,1-7-6.71A16.18,16.18,0,0,1,600.5,1108.67Z" transform="translate(-223.34 -870)"/><path class="cls-1" d="M768.33,999.92a92.11,92.11,0,0,1,4.25-28.84A61.67,61.67,0,0,1,785,949,54.52,54.52,0,0,1,804.88,935a74.72,74.72,0,0,1,53.54,0A54.58,54.58,0,0,1,878.29,949a62,62,0,0,1,12.42,22A91.47,91.47,0,0,1,895,1000H805a88.24,88.24,0,0,0,2.62,22.42,49.28,49.28,0,0,0,7.71,16.79,33.84,33.84,0,0,0,12.55,10.5,38.75,38.75,0,0,0,17.12,3.62,44.83,44.83,0,0,0,24.92-7.87,47.52,47.52,0,0,0,10.79-10.38,48,48,0,0,0,7.62-15.08h9.34a66.3,66.3,0,0,1-8,20.83,58.39,58.39,0,0,1-32.21,25.71A70.53,70.53,0,0,1,835,1070q-16.25,0-28.71-5.33A58.66,58.66,0,0,1,785.42,1050a62.63,62.63,0,0,1-12.75-22.21A86.41,86.41,0,0,1,768.33,999.92ZM831.67,940a18.58,18.58,0,0,0-11.75,3.88,29.44,29.44,0,0,0-8.3,10.62,60.3,60.3,0,0,0-4.91,15.88A111.26,111.26,0,0,0,805.08,990h53.17a112,112,0,0,0-1.63-19.71,59.23,59.23,0,0,0-5-15.87,29.89,29.89,0,0,0-8.29-10.59A18.63,18.63,0,0,0,831.67,940Z" transform="translate(-223.34 -870)"/><path class="cls-1" d="M938.33,976.67a17,17,0,0,1-6.83-1.34,16.27,16.27,0,0,1-5.29-3.58,15.17,15.17,0,0,1-3.38-5.29,17.84,17.84,0,0,1-1.17-6.46,21.64,21.64,0,0,1,3.8-12.42,30.64,30.64,0,0,1,10.79-9.46,61.72,61.72,0,0,1,16.83-6A104.51,104.51,0,0,1,975,930q16.25,0,27.12,4.12a44.88,44.88,0,0,1,17.46,11.3,41,41,0,0,1,9.33,16.91,76.82,76.82,0,0,1,2.75,21v60a30.77,30.77,0,0,0,.71,6.84,12,12,0,0,0,2.59,5.25,12.2,12.2,0,0,0,5.12,3.37,23.88,23.88,0,0,0,8.25,1.21v6.67H1028a41.9,41.9,0,0,1-7.75-.67,22.18,22.18,0,0,1-6.54-2.25,17.82,17.82,0,0,1-5.17-4.13,19.37,19.37,0,0,1-3.54-6.29,29.46,29.46,0,0,1-6.13,6,45.1,45.1,0,0,1-9.54,5.38,66.69,66.69,0,0,1-12.67,3.83,77.48,77.48,0,0,1-15.58,1.46,69.17,69.17,0,0,1-19.58-2.54,42.76,42.76,0,0,1-14.46-7.17,31,31,0,0,1-9-11.08A32.64,32.64,0,0,1,915,1035a34,34,0,0,1,9.54-24,61,61,0,0,1,13.08-10.38,120.6,120.6,0,0,1,19.63-9.33q10.92-4.08,18.71-7.33a70.91,70.91,0,0,0,12.75-6.67,23.45,23.45,0,0,0,7.29-7.54,20.37,20.37,0,0,0,2.33-10.13,26.54,26.54,0,0,0-.83-6.16,15.54,15.54,0,0,0-3.34-6.38,19.33,19.33,0,0,0-7.08-5q-4.58-2-12.08-2a25,25,0,0,0-7.92,1.21,16.57,16.57,0,0,0-10.54,9.91A23.45,23.45,0,0,0,955,960a17.84,17.84,0,0,1-1.17,6.46,15.29,15.29,0,0,1-3.37,5.29,16.42,16.42,0,0,1-5.3,3.58A17,17,0,0,1,938.33,976.67Zm60,6.66q-10,5.34-18.54,10.34A86.14,86.14,0,0,0,965,1004.38a44.11,44.11,0,0,0-9.79,12.7,35.45,35.45,0,0,0-3.55,16.25,27.8,27.8,0,0,0,2,11.25,20.3,20.3,0,0,0,5.13,7.21,17.86,17.86,0,0,0,7,3.79,27.16,27.16,0,0,0,7.5,1.09,28.79,28.79,0,0,0,9.91-1.67,18.92,18.92,0,0,0,8-5.58,27.68,27.68,0,0,0,5.29-10.3,55.46,55.46,0,0,0,1.92-15.79Z" transform="translate(-223.34 -870)"/><path class="cls-1" d="M1138.33,960.58a16.94,16.94,0,0,1,.5-4.5,25.15,25.15,0,0,1,1.12-3.16c.42-.95.81-1.86,1.17-2.75a8.45,8.45,0,0,0,.54-3.17,8.29,8.29,0,0,0-.41-2.58,5.62,5.62,0,0,0-1.42-2.25,7,7,0,0,0-2.63-1.59,12.56,12.56,0,0,0-4.12-.58,15.35,15.35,0,0,0-4.25.67,16.17,16.17,0,0,0-4.75,2.33,21.44,21.44,0,0,0-4.63,4.5,29.11,29.11,0,0,0-4,7.29,53.86,53.86,0,0,0-2.8,10.67,89.5,89.5,0,0,0-1,14.54v63.33a17.59,17.59,0,0,0,1.71,8.25,13.57,13.57,0,0,0,4.54,5.13,17.7,17.7,0,0,0,6.42,2.58,37.87,37.87,0,0,0,7.33.71v6.67h-73.33V1060a37.87,37.87,0,0,0,7.33-.71,17.7,17.7,0,0,0,6.42-2.58,13.57,13.57,0,0,0,4.54-5.13,17.59,17.59,0,0,0,1.71-8.25V956.67a17.36,17.36,0,0,0-1.71-8.21,13.56,13.56,0,0,0-4.54-5.08,18.13,18.13,0,0,0-6.42-2.63,35.68,35.68,0,0,0-7.33-.75v-6.67q5.33,0,10.46,0c3.41,0,6.86-.15,10.33-.37s7.06-.56,10.75-1,7.63-1.09,11.79-1.92l3.34,16.67a43.22,43.22,0,0,1,14.45-13,39,39,0,0,1,18.88-4.54,37.44,37.44,0,0,1,12.92,2.21,35.06,35.06,0,0,1,10.62,6,28.68,28.68,0,0,1,7.17,8.79,22.26,22.26,0,0,1,2.62,10.5,21.62,21.62,0,0,1-1.21,7.37,16.47,16.47,0,0,1-3.45,5.79,15.52,15.52,0,0,1-5.55,3.79,18.87,18.87,0,0,1-7.37,1.38,17.5,17.5,0,0,1-6.58-1.17,14.75,14.75,0,0,1-5-3.16,13.84,13.84,0,0,1-3.13-4.63A14.22,14.22,0,0,1,1138.33,960.58Z" transform="translate(-223.34 -870)"/><path class="cls-1" d="M1271,973.08a48.52,48.52,0,0,0-6.79-17.37,34.64,34.64,0,0,0-6.83-7.88,33.12,33.12,0,0,0-9.63-5.66A34.57,34.57,0,0,0,1235,940a35.25,35.25,0,0,0-9.3,1.17,22.43,22.43,0,0,0-7.41,3.45,16.4,16.4,0,0,0-4.88,5.59,15.89,15.89,0,0,0-1.75,7.54,18.13,18.13,0,0,0,2.34,9.54,22.56,22.56,0,0,0,7.12,7,69.28,69.28,0,0,0,12,6.13q7.22,3,17,6.62a94.4,94.4,0,0,1,19,9.46,50.45,50.45,0,0,1,11.71,10.5,32.73,32.73,0,0,1,5.87,11.25,42.93,42.93,0,0,1,1.63,11.71,36.17,36.17,0,0,1-3.88,17,36.76,36.76,0,0,1-10.7,12.58,49.16,49.16,0,0,1-16,7.79,71.39,71.39,0,0,1-20,2.67,83.78,83.78,0,0,1-13.75-1.08,78.72,78.72,0,0,1-12-2.92,56.39,56.39,0,0,1-9.75-4.25,41.71,41.71,0,0,1-7.29-5.08l-3.34,10h-10V1010h10a54.51,54.51,0,0,0,.84,8.67,64.74,64.74,0,0,0,2.75,10.66,59.9,59.9,0,0,0,5.12,11.05,42.06,42.06,0,0,0,8,9.83,39,39,0,0,0,11.38,7.08A39.45,39.45,0,0,0,1235,1060a30.87,30.87,0,0,0,8.79-1.25,22.67,22.67,0,0,0,7.46-3.75,18.37,18.37,0,0,0,5.16-6.25,19,19,0,0,0,1.92-8.75,22.33,22.33,0,0,0-2.13-10,24.09,24.09,0,0,0-6.58-7.92,58.06,58.06,0,0,0-11.37-7q-6.93-3.33-16.5-7.16a112.76,112.76,0,0,1-17.34-8.46,54.47,54.47,0,0,1-12-9.67,33.83,33.83,0,0,1-6.91-11.41,40.48,40.48,0,0,1-2.21-13.71,28.48,28.48,0,0,1,3.67-14.42,33.29,33.29,0,0,1,10.16-10.92,49.62,49.62,0,0,1,15.5-6.91,75.76,75.76,0,0,1,19.67-2.42,72.29,72.29,0,0,1,20.5,2.83A69.86,69.86,0,0,1,1269.5,940l2.16-6.67h10V980h-10A40.87,40.87,0,0,0,1271,973.08Z" transform="translate(-223.34 -870)"/><path class="cls-1" d="M1456.66,1070a81.16,81.16,0,0,1-29.21-5,60,60,0,0,1-36-36.25,88.61,88.61,0,0,1,0-57.71,61.05,61.05,0,0,1,13.92-22,61.69,61.69,0,0,1,22-14.08,88.49,88.49,0,0,1,58.42,0,60,60,0,0,1,36,36.12,88.61,88.61,0,0,1,0,57.71,60,60,0,0,1-36,36.25A81.16,81.16,0,0,1,1456.66,1070Zm0-130a25.8,25.8,0,0,0-13.67,3.75A31.14,31.14,0,0,0,1432.45,955a63.48,63.48,0,0,0-6.75,18.71,146.56,146.56,0,0,0,0,52.5,63.41,63.41,0,0,0,6.75,18.79,31.14,31.14,0,0,0,10.54,11.25,26.72,26.72,0,0,0,27.3,0,31.31,31.31,0,0,0,10.5-11.25,64.24,64.24,0,0,0,6.79-18.79,144.16,144.16,0,0,0,0-52.5,64.32,64.32,0,0,0-6.79-18.71,31.31,31.31,0,0,0-10.5-11.25A25.61,25.61,0,0,0,1456.66,940Z" transform="translate(-223.34 -870)"/><path class="cls-1" d="M1593.33,1043.33a17.59,17.59,0,0,0,1.71,8.25,13.49,13.49,0,0,0,4.54,5.13,17.58,17.58,0,0,0,6.41,2.58,38,38,0,0,0,7.34.71v6.67H1540V1060a38,38,0,0,0,7.34-.71,17.72,17.72,0,0,0,6.41-2.58,13.59,13.59,0,0,0,4.55-5.13,17.72,17.72,0,0,0,1.7-8.25V900a17.52,17.52,0,0,0-1.7-8.21,13.66,13.66,0,0,0-4.55-5.08,18.35,18.35,0,0,0-6.41-2.63,35.77,35.77,0,0,0-7.34-.75v-6.66q5.34,0,12-.59t13.8-1.5q7.13-.92,14.2-2.12t13.34-2.46Z" transform="translate(-223.34 -870)"/><path class="cls-1" d="M1730,1053.42a48.43,48.43,0,0,1-5.91,6,37.68,37.68,0,0,1-8.21,5.29,51.79,51.79,0,0,1-11.17,3.79A66.5,66.5,0,0,1,1690,1070a70.19,70.19,0,0,1-19.75-2.62,57.36,57.36,0,0,1-16-7.38,54.15,54.15,0,0,1-12.21-11.25,65.66,65.66,0,0,1-8.63-14.29,75.77,75.77,0,0,1-5.12-16.54,97,97,0,0,1,0-35.84,75.77,75.77,0,0,1,5.12-16.54,65.66,65.66,0,0,1,8.63-14.29A54.15,54.15,0,0,1,1654.29,940a57.36,57.36,0,0,1,16-7.38A70.19,70.19,0,0,1,1690,930a64.87,64.87,0,0,1,18.75,2.54,37.2,37.2,0,0,1,14.59,8.21V900a17.39,17.39,0,0,0-1.71-8.21,13.73,13.73,0,0,0-4.54-5.08,18.32,18.32,0,0,0-6.42-2.63,35.68,35.68,0,0,0-7.33-.75v-6.66q5.33,0,12-.59t13.79-1.5q7.13-.92,14.21-2.12t13.33-2.46v173.42a17.65,17.65,0,0,0,1.71,8.25,13.61,13.61,0,0,0,4.54,5.12,17.89,17.89,0,0,0,6.42,2.59,37.8,37.8,0,0,0,7.33.7v6.67c-2.89,0-6.07.13-9.54.37s-7.07.6-10.79,1.05-7.52.94-11.38,1.5-7.65,1.16-11.37,1.83Zm-33.33-112.59a24.39,24.39,0,0,0-11.17,2.5,27.71,27.71,0,0,0-8.58,6.79,42.46,42.46,0,0,0-6.29,10,67.71,67.71,0,0,0-4.21,12.25,103.36,103.36,0,0,0-2.33,13.37,123.43,123.43,0,0,0-.75,13.38q0,6.58.62,13.58a108.73,108.73,0,0,0,2.09,13.67,73.1,73.1,0,0,0,4,12.62,41.09,41.09,0,0,0,6.21,10.42,28.28,28.28,0,0,0,8.75,7.08,25,25,0,0,0,11.71,2.63,27.21,27.21,0,0,0,8.75-1.59,25.24,25.24,0,0,0,8.67-5.12,27.46,27.46,0,0,0,6.62-9.29,33.6,33.6,0,0,0,2.63-14v-60A32.11,32.11,0,0,0,1721,956.5a25.89,25.89,0,0,0-6-8.83,23.75,23.75,0,0,0-8.54-5.17A29.62,29.62,0,0,0,1696.66,940.83Z" transform="translate(-223.34 -870)"/></svg>
