<?xml version="1.0" encoding="utf-8"?>
<!-- Generator: Adobe Illustrator 24.1.0, SVG Export Plug-In . SVG Version: 6.00 Build 0)  -->
<svg version="1.1" id="Layer_1" xmlns="http://www.w3.org/2000/svg" xmlns:xlink="http://www.w3.org/1999/xlink" x="0px" y="0px" height="150px" width="150px"
	 viewBox="0 0 35 15" style="enable-background:new 0 0 35 15;" xml:space="preserve">
<style type="text/css">
	.st0{fill:#0d89c5;}
</style>
<g>
	<path class="st0" d="M3.33,10.6h1.14V4.37l-1.43-0.8V3.55l4.07-1.69v8.74h1.14v0.19H3.33V10.6z"/>
	<path class="st0" d="M15.37,5.52c0,2.82-2.25,4.81-5.67,5.59l-0.05-0.13c1.63-0.65,2.51-1.8,2.82-3.8
		c-0.37,0.18-0.83,0.26-1.38,0.26c-1.79,0-2.9-1.01-2.9-2.54c0-1.79,1.56-2.97,3.56-2.97C13.84,1.92,15.37,3.11,15.37,5.52z
		 M12.52,6.86c0.06-0.52,0.1-1.08,0.1-1.7c0-2.21-0.2-3-0.85-3c-0.6,0-0.82,0.64-0.82,2.39c0,2,0.37,2.52,0.98,2.52
		C12.14,7.06,12.33,6.99,12.52,6.86z"/>
	<path class="st0" d="M25.68,4.92l-0.8,0.59l-2.6,5.29l-1.43,3.13l-2.28-1.59l3.49-1.6L19.23,5.5l-0.82-0.59h4.21l-0.8,0.59
		l1.33,3.15l1.13-3.15l-0.92-0.59H25.68z"/>
	<path class="st0" d="M25.33,7.76c0-1.72,1.34-3.08,3.3-3.08c1.98,0,3.41,1.2,3.41,3.08c0,1.75-1.12,3.15-3.39,3.15
		C26.91,10.91,25.33,9.69,25.33,7.76z M30.47,9.87c0-1.01-2.02-4.76-3.07-4.76c-0.3,0-0.48,0.22-0.48,0.59
		c0,1.18,2.08,4.78,3.06,4.78C30.3,10.48,30.47,10.28,30.47,9.87z"/>
</g>
</svg>
