<svg id="Layer_1" data-name="Layer 1" xmlns="http://www.w3.org/2000/svg" height="150px" width="150px" viewBox="0 0 136.62 63.41"><defs><style>.cls-1{fill:#94B9AF;}</style></defs><path class="cls-1" d="M24.23,52.47A14.79,14.79,0,0,0,14.3,51c-2.91.45-6.25,2-6.71,5.24a5.25,5.25,0,0,0,1.46,4.36c1.27,1.27,3.09,1.52,4.76,1.87s3.51.64,5.21,1.15c1,.3,1.86,1,.84,1.88s-3.5,1-5,1a27.14,27.14,0,0,1-6.35-.67c-1.88-.42-2.68,2.47-.8,2.89A27.34,27.34,0,0,0,19,69.06a5.42,5.42,0,0,0,3.92-2.7,3.73,3.73,0,0,0-.93-4.6,9.81,9.81,0,0,0-4.3-1.57c-1.8-.39-3.68-.66-5.44-1.19a2.19,2.19,0,0,1-1.66-2.41c.16-1.1,1.27-1.79,2.22-2.16a11.94,11.94,0,0,1,10,.63,1.5,1.5,0,0,0,1.51-2.59Z" transform="translate(-6.68 -43.33)"/><path class="cls-1" d="M48.88,53.35c-2.54-1.42-5.48-2.63-8.34-1.36-2.24,1-3.86,3.29-5.16,5.28-1.47,2.25-2,5-.36,7.35,1.41,2,3.64,3.17,5.75,4.28,3,1.56,6.15,2.76,9.55,2.1a1.51,1.51,0,0,0,1-1.84,1.53,1.53,0,0,0-1.84-1c-2.83.55-5.63-.91-8-2.22-1.61-.88-4.15-2.06-4.5-4.1-.21-1.23.56-2.4,1.22-3.36a18.2,18.2,0,0,1,2.17-2.7,3.86,3.86,0,0,1,3.08-1.29,10,10,0,0,1,3.91,1.5c1.69.94,3.2-1.65,1.51-2.59Z" transform="translate(-6.68 -43.33)"/><path class="cls-1" d="M63.25,68.8c-.27-3.28-1-6.48-1.46-9.73a26.44,26.44,0,0,1-.25-4.79,13.52,13.52,0,0,1,.35-2.53c.14-.57.42-.63,1-.86a9.69,9.69,0,0,1,4.44-1c.78.08,2.68.62,2.55,1.71s-2.28,1.92-2.94,2.35l-4.57,3a1.51,1.51,0,0,0-.3,2.35,61.67,61.67,0,0,0,11.77,8.68,1.5,1.5,0,0,0,1.52-2.59,58.33,58.33,0,0,1-11.17-8.21l-.3,2.36,4.56-3a14.57,14.57,0,0,0,3.46-2.61c2.21-2.66.13-5.71-2.7-6.68a8.19,8.19,0,0,0-4.31-.15,13.3,13.3,0,0,0-4.4,1.64c-1.34.87-1.58,2.41-1.78,3.88a21.5,21.5,0,0,0-.09,4.81c.33,3.83,1.33,7.56,1.64,11.38.15,1.91,3.16,1.93,3,0Z" transform="translate(-6.68 -43.33)"/><path class="cls-1" d="M89.77,49c-2.65.82-5.4,2-6.48,4.77a6.79,6.79,0,0,0,2.18,7.52,8.67,8.67,0,0,0,8.27,1.44c3.09-1.24,4-4.8,2.93-7.75s-3.61-6.36-7.09-6a1.54,1.54,0,0,0-1.5,1.5,1.52,1.52,0,0,0,1.5,1.5,3.14,3.14,0,0,1,.75,0c.25,0-.27-.11.16,0,.1,0,.21,0,.31.09a4.07,4.07,0,0,1,.91.56,6.93,6.93,0,0,1,1.76,2.37A5.21,5.21,0,0,1,94.09,58c0-.21,0,.14,0,.18s0,.22-.08.33a1.64,1.64,0,0,1-.2.49,1.94,1.94,0,0,1-.72.8c-1.45.91-3.76.47-5.19-.42a4,4,0,0,1-1.69-1.94c.07.16,0-.1,0-.1l-.12-.4-.09-.4s0-.29,0-.09a4.85,4.85,0,0,1,0-.66c0-.1,0-.21,0-.32,0,.23,0-.2.06-.24a3.32,3.32,0,0,1,1.54-2,11.45,11.45,0,0,1,3-1.28,1.53,1.53,0,0,0,1-1.85,1.51,1.51,0,0,0-1.84-1Z" transform="translate(-6.68 -43.33)"/><path class="cls-1" d="M103.72,47.16l-.37,15.78a1.54,1.54,0,0,0,1.5,1.5l12.05,1.07a1.51,1.51,0,0,0,1.5-1.5,1.53,1.53,0,0,0-1.5-1.5l-12.05-1.07,1.5,1.5.37-15.78c0-1.93-3-1.93-3,0Z" transform="translate(-6.68 -43.33)"/><path class="cls-1" d="M127.6,44.78l-.41,8.78L127,58a34.37,34.37,0,0,0-.16,4.18c.24,3.23,4.21,2.48,6.46,2.47h8.57a1.5,1.5,0,0,0,0-3H130.43c-.33,0-.83.09-1.08-.09l.54.53c-.25-.33,0-1.11,0-1.54l.11-2.19.21-4.58.42-9c.09-1.93-2.91-1.93-3,0Z" transform="translate(-6.68 -43.33)"/><path class="cls-1" d="M33.69,85.64a114.72,114.72,0,0,0,.55,15.17c.13,1.22.27,2.44.45,3.66a2.26,2.26,0,0,0,2.22,2.19,23,23,0,0,0,6.82-.49A17.2,17.2,0,0,0,50,103.78a8.29,8.29,0,0,0,3.3-5.06A17.06,17.06,0,0,0,54,92.54a6.62,6.62,0,0,0-3.35-4.9,35.31,35.31,0,0,0-14.6-4.78,1.5,1.5,0,0,0,0,3A32.87,32.87,0,0,1,46.76,89c1.35.66,3.31,1.42,4,2.87s.27,3.25,0,4.74-.66,3.37-2,4.47a12.12,12.12,0,0,1-4.65,2,22.38,22.38,0,0,1-5.81.7,6.06,6.06,0,0,1-1.33-.06l.36.21c.38.35.49.28.31-.21,0-.2,0-.4-.08-.61-.13-1.09-.25-2.17-.36-3.26a115.29,115.29,0,0,1-.45-14.15c.05-1.93-2.95-1.93-3,0Z" transform="translate(-6.68 -43.33)"/><path class="cls-1" d="M61.71,90.24A12.47,12.47,0,0,0,60.51,98c.65,2.69,3.53,3.27,5.9,3.45a8.65,8.65,0,0,0,6.81-2.18,6.3,6.3,0,0,0,1.71-3,2.6,2.6,0,0,0-.19-2.15A6.28,6.28,0,0,0,73,92.92,43.1,43.1,0,0,0,65,89.27a1.5,1.5,0,1,0-.8,2.89,40.24,40.24,0,0,1,8.57,4.18l-.75-1.29a2.88,2.88,0,0,1-.54,1.62,3.93,3.93,0,0,1-1.36,1.18,7.21,7.21,0,0,1-4.46.53,5.82,5.82,0,0,1-1.78-.47s-.38-.28-.23-.15c-.15-.14-.08,0-.18-.21a2.29,2.29,0,0,1-.17-.87,10.69,10.69,0,0,1,1-4.92,1.54,1.54,0,0,0-.54-2.05,1.5,1.5,0,0,0-2,.53Z" transform="translate(-6.68 -43.33)"/><path class="cls-1" d="M79.69,90.74c-.12,2.6.13,5.78,2.69,7.19a4.54,4.54,0,0,0,3.6.42,3.66,3.66,0,0,0,1.42-.9c.11-.12,1.1-1.41,1-1.57.09.12-.39.08-.4.13s.44.43.48.47a10.48,10.48,0,0,0,1.11,1.1,4.6,4.6,0,0,0,4.08.74c2.87-.76,4.18-3.5,5.23-6a1.49,1.49,0,0,0-1-1.84A1.54,1.54,0,0,0,96,91.51c-.66,1.56-1.57,3.83-3.54,4-.91.07-1.3-.54-1.87-1.14A3.38,3.38,0,0,0,87.88,93a3.11,3.11,0,0,0-2.44,2c-.29.56-.58.63-1.16.47-1.89-.52-1.66-3.24-1.59-4.75.09-1.93-2.91-1.92-3,0Z" transform="translate(-6.68 -43.33)"/><path class="cls-1" d="M105.86,98.85a21.77,21.77,0,0,1,.16-4.91,7.67,7.67,0,0,1,.64-2.09,6.18,6.18,0,0,1,.64-1c0-.06.22-.18.19-.22-.2-.28-.3,0-.28.08s.77.75,1,.94.62.64.92,1c.67.72,1.32,1.47,2,2.23a47.44,47.44,0,0,1,3.4,4.69,1.51,1.51,0,0,0,2.35.3,16.1,16.1,0,0,0,4-12,1.55,1.55,0,0,0-1.5-1.5,1.5,1.5,0,0,0-1.5,1.5,13.16,13.16,0,0,1-3.13,9.91L117,98a54,54,0,0,0-4.39-5.92c-.75-.89-1.54-1.75-2.35-2.58s-1.75-1.88-3.06-1.87c-2.23,0-3.51,3-4,4.86a22.29,22.29,0,0,0-.41,6.37c.08,1.92,3.08,1.93,3,0Z" transform="translate(-6.68 -43.33)"/></svg>