<?xml version="1.0" encoding="utf-8"?>
<!-- Generator: Adobe Illustrator 24.1.0, SVG Export Plug-In . SVG Version: 6.00 Build 0)  -->
<svg version="1.1" id="Layer_1" xmlns="http://www.w3.org/2000/svg" xmlns:xlink="http://www.w3.org/1999/xlink" x="0px" y="0px" height="150px" width="150px"
	 viewBox="0 0 70 35" style="enable-background:new 0 0 70 35;" xml:space="preserve">
<style type="text/css">
	.st0{fill:#0a0a0a;}
</style>
<g>
	<path class="st0" d="M5,14.03c-2.16,0-3.53-0.95-3.63-2.88c0-0.07,0.07-0.14,0.14-0.14h1.25c0.08,0,0.14,0.06,0.16,0.14
		c0.12,1.06,0.64,1.71,2.12,1.71c1.16,0,1.91-0.37,1.91-1.31c0-2.09-5.41-0.49-5.41-3.77c0-1.56,1.22-2.49,3.21-2.49
		c1.94,0,3.2,0.77,3.44,2.51c0,0.07-0.06,0.14-0.13,0.14H6.8c-0.08,0-0.14-0.06-0.16-0.14C6.54,6.94,5.88,6.47,4.7,6.47
		c-1,0-1.72,0.36-1.72,1.18c0,1.95,5.43,0.4,5.43,3.71C8.42,13.1,7.05,14.03,5,14.03z"/>
	<path class="st0" d="M13.77,13.86c-0.07,0-0.14-0.07-0.14-0.14l0.02-0.7c-0.43,0.6-1.07,0.96-1.91,0.96c-1.7,0-2.61-1.39-2.61-3.19
		c0-1.79,1-3.23,2.65-3.23c0.8,0,1.44,0.31,1.86,0.91l-0.02-0.65c0-0.07,0.07-0.14,0.14-0.14h1.19c0.07,0,0.14,0.07,0.14,0.14
		l-0.06,2.93l0.06,2.96c0,0.07-0.07,0.14-0.14,0.14H13.77z M12.14,12.96c0.97,0,1.52-0.72,1.54-2.15c0.01-1.43-0.53-2.22-1.51-2.23
		c-1.04-0.01-1.56,0.79-1.56,2.11C10.6,12.13,11.12,12.96,12.14,12.96z"/>
	<path class="st0" d="M16.41,13.86c-0.07,0-0.14-0.07-0.14-0.14l0.06-2.76l-0.05-3.13c0-0.07,0.07-0.14,0.14-0.14h1.12
		c0.07,0,0.14,0.07,0.14,0.14l-0.02,0.76c0.4-0.58,1.09-1.04,2.02-1.04c1.3,0,2.1,0.86,2.1,2.42v1.27l0.05,2.48
		c0,0.07-0.07,0.14-0.14,0.14h-1.19c-0.07,0-0.14-0.07-0.14-0.14l0.05-2.48V10c0-0.88-0.48-1.33-1.14-1.33
		c-0.73,0-1.4,0.61-1.52,1.9v0.67l0.02,2.48c0,0.07-0.07,0.14-0.14,0.14H16.41z"/>
	<path class="st0" d="M31.01,13.86c-0.08,0-0.17-0.06-0.19-0.13l-0.72-2.17h-3.31l-0.7,2.17c-0.02,0.07-0.11,0.13-0.19,0.13h-1.2
		c-0.07,0-0.12-0.07-0.1-0.13l2.87-8.13c0.02-0.07,0.11-0.13,0.19-0.13h1.67c0.08,0,0.17,0.06,0.19,0.13l2.82,8.13
		c0.02,0.06-0.02,0.13-0.1,0.13H31.01z M29.71,10.33l-1.27-3.84l-1.25,3.84H29.71z"/>
	<path class="st0" d="M33.19,13.86c-0.07,0-0.14-0.07-0.14-0.14l0.06-2.76l-0.05-3.13c0-0.07,0.07-0.14,0.14-0.14h1.12
		c0.07,0,0.14,0.07,0.14,0.14l-0.02,0.76c0.4-0.58,1.09-1.04,2.02-1.04c1.29,0,2.1,0.86,2.1,2.42v1.27l0.05,2.48
		c0,0.07-0.07,0.14-0.14,0.14h-1.19c-0.07,0-0.14-0.07-0.14-0.14l0.05-2.48V10c0-0.88-0.48-1.33-1.14-1.33
		c-0.73,0-1.4,0.61-1.52,1.9v0.67l0.02,2.48c0,0.07-0.07,0.14-0.14,0.14H33.19z"/>
	<path class="st0" d="M43,13.62c0,0.08-0.06,0.17-0.13,0.19c-0.3,0.08-0.64,0.16-0.96,0.16c-0.97,0-1.85-0.49-1.85-1.87l0.01-3.33
		h-0.66c-0.07,0-0.14-0.07-0.14-0.14V7.83c0-0.07,0.07-0.14,0.14-0.14h0.65l-0.02-1.4c0-0.07,0.07-0.14,0.14-0.14h1.2
		c0.07,0,0.14,0.07,0.14,0.14l-0.01,1.4h1.34c0.07,0,0.14,0.07,0.14,0.14v0.79c0,0.07-0.07,0.14-0.14,0.14H41.5v3.3
		c0,0.62,0.26,0.82,0.72,0.82c0.25,0,0.47-0.04,0.64-0.08C42.93,12.78,43,12.83,43,12.9V13.62z"/>
	<path class="st0" d="M46.51,14c-1.94,0-3.06-1.26-3.06-3.21s1.12-3.25,3.06-3.25c1.94,0,3.04,1.26,3.04,3.21
		C49.54,12.72,48.45,14,46.51,14z M46.51,12.98c1.06,0,1.55-0.72,1.55-2.19c0-1.46-0.5-2.23-1.56-2.23
		c-1.06,0.01-1.56,0.78-1.56,2.24C44.94,12.25,45.45,12.98,46.51,12.98z"/>
	<path class="st0" d="M50.69,13.86c-0.07,0-0.14-0.07-0.14-0.14l0.06-2.76l-0.05-3.13c0-0.07,0.07-0.14,0.14-0.14h1.12
		c0.07,0,0.14,0.07,0.14,0.14l-0.02,0.76c0.4-0.58,1.09-1.04,2.02-1.04c1.29,0,2.1,0.86,2.1,2.42v1.27l0.05,2.48
		c0,0.07-0.07,0.14-0.14,0.14h-1.19c-0.07,0-0.14-0.07-0.14-0.14l0.05-2.48V10c0-0.88-0.48-1.33-1.14-1.33
		c-0.73,0-1.4,0.61-1.52,1.9v0.67l0.02,2.48c0,0.07-0.07,0.14-0.14,0.14H50.69z"/>
	<path class="st0" d="M57.42,13.86c-0.07,0-0.14-0.07-0.14-0.14l0.06-2.99l-0.06-2.9c0-0.07,0.07-0.14,0.14-0.14h1.22
		c0.07,0,0.14,0.07,0.14,0.14l-0.06,2.9l0.06,2.99c0,0.07-0.07,0.14-0.14,0.14H57.42z M57.44,7.01c-0.07,0-0.14-0.07-0.14-0.14V5.73
		c0-0.07,0.07-0.14,0.14-0.14h1.18c0.07,0,0.14,0.07,0.14,0.14v1.14c0,0.07-0.07,0.14-0.14,0.14H57.44z"/>
	<path class="st0" d="M62.86,14c-1.94,0-3.06-1.26-3.06-3.21s1.12-3.25,3.06-3.25s3.03,1.26,3.03,3.21C65.9,12.72,64.81,14,62.86,14
		z M62.86,12.98c1.06,0,1.55-0.72,1.55-2.19c0-1.46-0.5-2.23-1.56-2.23c-1.06,0.01-1.56,0.78-1.56,2.24
		C61.29,12.25,61.81,12.98,62.86,12.98z"/>
	<path class="st0" d="M66.6,15.17c-0.07,0-0.12-0.07-0.11-0.14l0.32-1.2v-1.33c0-0.07,0.07-0.14,0.14-0.14h1.1
		c0.07,0,0.14,0.07,0.14,0.14v1.18c0,0.08-0.04,0.19-0.08,0.26l-0.78,1.12c-0.05,0.07-0.14,0.12-0.23,0.12H66.6z"/>
	<path class="st0" d="M3.74,28.26c-0.07,0-0.14-0.07-0.14-0.14l0.11-4.04l-0.1-3.06H1.34c-0.07,0-0.14-0.07-0.14-0.14v-0.86
		c0-0.07,0.07-0.14,0.14-0.14h6.08c0.07,0,0.14,0.07,0.14,0.14v0.86c0,0.07-0.07,0.14-0.14,0.14H5.16l-0.08,3.06l0.11,4.04
		c0,0.07-0.07,0.14-0.14,0.14H3.74z"/>
	<path class="st0" d="M12.34,26.15c0.07,0,0.13,0.07,0.12,0.14c-0.18,1.16-1.19,2.11-2.82,2.11c-1.99,0-3.07-1.33-3.07-3.21
		c0-1.96,1.14-3.25,3.02-3.25c1.9,0,2.99,1.27,3.03,3.36c0,0.07-0.07,0.14-0.14,0.14H8.03c0.06,1.32,0.6,1.94,1.63,1.94
		c0.74,0,1.24-0.35,1.42-1.09c0.02-0.08,0.1-0.14,0.18-0.14H12.34z M9.61,22.95c-0.86,0-1.38,0.53-1.54,1.52h3
		C11.01,23.67,10.54,22.95,9.61,22.95z"/>
	<path class="st0" d="M16.77,28.26c-0.08,0-0.17-0.05-0.22-0.13l-1.25-2.25L14,28.14c-0.05,0.07-0.13,0.12-0.22,0.12h-1.22
		c-0.06,0-0.11-0.07-0.07-0.12l1.91-3.09l-1.78-2.84c-0.02-0.05,0.01-0.12,0.07-0.12h1.33c0.08,0,0.17,0.05,0.22,0.12l1.2,2.09
		l1.13-2.08c0.05-0.08,0.13-0.13,0.22-0.13h1.18c0.06,0,0.11,0.07,0.07,0.12l-1.7,2.83l1.86,3.11c0.04,0.05-0.01,0.12-0.07,0.12
		H16.77z"/>
	<path class="st0" d="M22.74,28.26c-0.07,0-0.14-0.07-0.14-0.14l0.02-0.7c-0.43,0.6-1.07,0.96-1.91,0.96c-1.7,0-2.61-1.39-2.61-3.19
		c0-1.79,1-3.23,2.65-3.23c0.8,0,1.44,0.31,1.86,0.91l-0.02-0.65c0-0.07,0.07-0.14,0.14-0.14h1.19c0.07,0,0.14,0.07,0.14,0.14
		L24,25.15l0.06,2.96c0,0.07-0.07,0.14-0.14,0.14H22.74z M21.1,27.36c0.97,0,1.52-0.72,1.54-2.15c0.01-1.43-0.53-2.22-1.51-2.23
		c-1.04-0.01-1.56,0.79-1.56,2.11C19.57,26.53,20.08,27.36,21.1,27.36z"/>
	<path class="st0" d="M27.94,28.4c-1.64,0-2.85-0.72-2.94-2.11c0-0.07,0.07-0.14,0.14-0.14h1.12c0.07,0,0.14,0.06,0.14,0.14
		c0.06,0.8,0.59,1.15,1.54,1.15c0.8,0,1.31-0.32,1.31-0.9c0-1.37-4.11-0.16-4.11-2.7c0-1.25,1.01-1.91,2.58-1.91
		c1.5,0,2.57,0.62,2.69,1.88c0.01,0.07-0.06,0.14-0.13,0.14h-1.06c-0.1,0-0.16-0.06-0.17-0.14c-0.11-0.61-0.56-0.95-1.36-0.95
		c-0.72,0-1.18,0.26-1.18,0.86c0,1.33,4.11,0.07,4.11,2.69C30.63,27.68,29.46,28.4,27.94,28.4z"/>
	<path class="st0" d="M31.46,29.57c-0.07,0-0.12-0.07-0.11-0.14l0.32-1.2v-1.33c0-0.07,0.07-0.14,0.14-0.14h1.1
		c0.07,0,0.14,0.07,0.14,0.14v1.18c0,0.08-0.04,0.19-0.08,0.26l-0.78,1.12c-0.05,0.07-0.14,0.12-0.23,0.12H31.46z"/>
	<path class="st0" d="M39.46,28.43c-2.16,0-3.27-1.19-3.26-3.31l0.02-2.44l-0.07-2.67c0-0.07,0.07-0.14,0.14-0.14h1.28
		c0.07,0,0.14,0.07,0.14,0.14l-0.06,2.64l0.01,2.46c0,1.31,0.53,2.1,1.79,2.1c1.32,0,1.87-0.79,1.87-2.1v-2.42l-0.05-2.67
		c0-0.07,0.07-0.14,0.14-0.14h1.15c0.07,0,0.14,0.07,0.14,0.14l-0.05,2.67v2.44C42.68,27.24,41.61,28.43,39.46,28.43z"/>
	<path class="st0" d="M47.23,28.43c-2.16,0-3.53-0.95-3.63-2.88c0-0.07,0.07-0.14,0.14-0.14h1.25c0.08,0,0.14,0.06,0.16,0.14
		c0.12,1.05,0.64,1.71,2.12,1.71c1.16,0,1.91-0.37,1.91-1.31c0-2.09-5.41-0.49-5.41-3.77c0-1.56,1.22-2.5,3.21-2.5
		c1.94,0,3.2,0.77,3.44,2.51c0,0.07-0.06,0.14-0.13,0.14h-1.26c-0.08,0-0.14-0.06-0.16-0.14c-0.11-0.86-0.77-1.33-1.94-1.33
		c-1,0-1.71,0.36-1.71,1.18c0,1.95,5.43,0.4,5.43,3.71C50.65,27.5,49.28,28.43,47.23,28.43z"/>
	<path class="st0" d="M57.23,28.26c-0.08,0-0.17-0.06-0.19-0.13l-0.72-2.17h-3.31l-0.7,2.17c-0.02,0.07-0.11,0.13-0.19,0.13h-1.2
		c-0.07,0-0.12-0.07-0.1-0.13l2.87-8.13c0.02-0.07,0.11-0.13,0.19-0.13h1.67c0.08,0,0.17,0.06,0.19,0.13l2.82,8.13
		c0.02,0.06-0.02,0.13-0.1,0.13H57.23z M55.93,24.73l-1.27-3.84l-1.25,3.84H55.93z"/>
</g>
</svg>
