<svg id="Layer_1" data-name="Layer 1" xmlns="http://www.w3.org/2000/svg" height="150px" width="150px" viewBox="0 0 143.86 23"><defs><style>.cls-1{fill:#22577A;}</style></defs><path class="cls-1" d="M12.06,74h-2q-.25-2-1.89-2a2.52,2.52,0,0,0-1.59.42,1.47,1.47,0,0,0-.54,1.24c0,.57,1,1.38,2.92,2.42,1.58.85,2.49,1.55,2.73,2.11A4.51,4.51,0,0,1,12.06,80a4,4,0,0,1-4,4h-2q-4,0-4-4h2c.16,1.33.79,2,1.88,2a2.52,2.52,0,0,0,1.59-.42,1.49,1.49,0,0,0,.54-1.25c0-.56-1-1.36-2.91-2.41-1.59-.85-2.5-1.55-2.74-2.11A4.54,4.54,0,0,1,2.07,74a3.87,3.87,0,0,1,1.18-2.85A3.86,3.86,0,0,1,6.06,70h2Q11.82,70,12.06,74Z" transform="translate(-2.07 -66)"/><path class="cls-1" d="M25.07,72h-2c-.16-1.34-.82-2-2-2a1.93,1.93,0,0,0-1.41.59A2,2,0,0,0,19.07,72v6a2,2,0,0,0,2,2c1.19,0,1.85-.66,2-2h2c-.16,2.66-1.5,4-4,4h-2a4,4,0,0,1-4-4V72a4,4,0,0,1,4-4h2Q24.85,68,25.07,72Z" transform="translate(-2.07 -66)"/><path class="cls-1" d="M34.07,86h-4V72h4v4a5,5,0,0,1,1.24-3,3.76,3.76,0,0,1,2.78-1h2v4h-4a1.92,1.92,0,0,0-1.41.58,1.89,1.89,0,0,0-.6,1.4Z" transform="translate(-2.07 -66)"/><path class="cls-1" d="M46.07,75h4a4,4,0,0,1,4,4v6a4,4,0,0,1-4,4h-4a4,4,0,0,1-4-4V79a4,4,0,0,1,4-4Zm0,4v6a1.91,1.91,0,0,0,.59,1.39,2,2,0,0,0,2.84,0A1.91,1.91,0,0,0,50.09,85V79a1.92,1.92,0,0,0-.6-1.42A2,2,0,0,0,48.08,77a2,2,0,0,0-2,2Z" transform="translate(-2.07 -66)"/><path class="cls-1" d="M58.07,89V71h4V89Z" transform="translate(-2.07 -66)"/><path class="cls-1" d="M65.08,84V66h4V84Z" transform="translate(-2.07 -66)"/><path class="cls-1" d="M94,84H90V82c-.15,1.34-.82,2-2,2h-2a4,4,0,0,1-4-4V74a4,4,0,0,1,4-4h4V66h4ZM90,72H88a2,2,0,0,0-2,2v6a2,2,0,0,0,2,2,2,2,0,0,0,2-2Z" transform="translate(-2.07 -66)"/><path class="cls-1" d="M99.93,73h4a4,4,0,0,1,4,4v6a4,4,0,0,1-4,4h-4a4,4,0,0,1-4-4V77a4,4,0,0,1,4-4Zm0,4v6a1.91,1.91,0,0,0,.59,1.39,2,2,0,0,0,2.84,0A1.91,1.91,0,0,0,104,83V77a1.92,1.92,0,0,0-.6-1.42A2,2,0,0,0,99.93,77Z" transform="translate(-2.07 -66)"/><path class="cls-1" d="M110.93,75h4V87h2a1.89,1.89,0,0,0,1.42-.59,1.91,1.91,0,0,0,.59-1.39V75h4V87h2a1.88,1.88,0,0,0,1.4-.59,1.91,1.91,0,0,0,.59-1.39V75h4v7.18A6.88,6.88,0,0,1,124.1,89h-5.16v-.64a5.76,5.76,0,0,1-2.84.64h-5.17Z" transform="translate(-2.07 -66)"/><path class="cls-1" d="M133.93,83V69h4v2a2.45,2.45,0,0,1,.62-1.51,1.87,1.87,0,0,1,1.38-.5h2a4,4,0,0,1,4,4V83h-4V73a2,2,0,0,0-4,0V83Z" transform="translate(-2.07 -66)"/></svg>