<svg id="Layer_1" data-name="Layer 1" xmlns="http://www.w3.org/2000/svg" height="150px" width="150px" viewBox="0 0 143.48 65.95"><defs><style>.cls-1{fill:#56EEF4;}</style></defs><path class="cls-1" d="M4.67,73.55C13.37,72.29,18.2,64.18,22,57.13l-2.05.54a10.22,10.22,0,0,1,4.38,7.07c.06.44.21,1.12-.16,1.38s-1.79.1-2.32.09a28.55,28.55,0,0,1-5.6-.66,1.51,1.51,0,0,0-1.16,2.74C21.2,72.43,29.16,71,35,67a61.62,61.62,0,0,0,7.76-6.86C45,58,47.67,55.88,51,56.32v-3c-3.35.4-7.09,1-8.93,4.25-1.65,2.89-.42,6.1,2.36,7.7s6.95,2.27,10,1c3.22-1.38,4.92-4.55,6.69-7.38,1-1.52,2.08-3.22,3.77-4a3.51,3.51,0,0,1,4.17.55l-.23-1.82c-1.5,3.51-3,7.67-.56,11.14s6.63,3,9.42.38c1.58-1.46,2.52-3.45,3.67-5.23a13.4,13.4,0,0,1,4-4.07c2.87-1.83,6.75-1.77,8.24,1.73a4.27,4.27,0,0,1-3.26,6.18c-2.72.4-5.25-1.47-4.79-4.36a4.59,4.59,0,0,1,2.15-3.28c1.76-1,3.87-.06,5.59.55a23.69,23.69,0,0,0,11.35,1.18A23,23,0,0,0,116,52.74c3-2.51,5.68-6.9,3.39-10.72a1.52,1.52,0,0,0-2.36-.3c-3.34,3-4.58,7.35-5.35,11.58S110,62.85,113.64,66c3,2.58,7.68,2.52,11,.49,3.85-2.38,6-6.72,7.22-10.91a36,36,0,0,0,1.49-8.73c.1-2,.07-5.39-2.78-5.37a1.52,1.52,0,0,0-1.45,1.1C127,49,124.9,57.47,130.46,62.9a11.14,11.14,0,0,0,15.39-.35c1.32-1.4-.79-3.53-2.13-2.12a8,8,0,0,1-11.63-.18c-4-4.73-1.78-11.68-.12-16.86l-1.44,1.1c-.44,0-.18-.18-.19.25s0,1,0,1.43c0,1.08-.11,2.16-.24,3.23a34.36,34.36,0,0,1-1.31,5.83c-1,3.21-2.61,6.69-5.55,8.58-2.23,1.44-5.61,1.78-7.71-.12-2.59-2.35-1.43-6.81-.88-9.77.68-3.68,1.63-7.51,4.54-10.08l-2.35-.3c2.07,3.44-2.74,7.21-5.27,8.72a20.41,20.41,0,0,1-11.36,2.81,21.46,21.46,0,0,1-6.13-1.32c-2-.71-4.19-1.39-6.35-.86-3.14.76-5.18,4-5.24,7.1-.15,7.32,10.52,9.2,13.73,3a8.18,8.18,0,0,0-1.67-9.32c-2.79-2.76-7-2.62-10.22-.78a16.1,16.1,0,0,0-4.88,4.49c-1.43,1.93-2.32,4.48-4.3,5.94-1.8,1.34-4,1-4.84-1.14-.94-2.34.21-4.95,1.13-7.1a1.59,1.59,0,0,0-.24-1.82c-2.3-2.6-6.38-2.23-9-.28-3.13,2.34-4.22,6.23-6.87,9a6.05,6.05,0,0,1-5.15,1.88,8.84,8.84,0,0,1-5-1.72c-1.31-1.14-1-2.78.13-3.92,1.46-1.45,3.75-1.68,5.68-1.91a1.5,1.5,0,0,0,0-3c-6.69-.88-11,5.9-15.54,9.63-5.21,4.3-12.81,6.86-18.89,2.75l-1.16,2.74a31,31,0,0,0,7.79.75c2.23-.08,4-1,4.14-3.41.23-4.24-2.54-8.41-5.92-10.7a1.51,1.51,0,0,0-2.05.54C16,62,11.8,69.51,3.88,70.66c-1.91.27-1.1,3.17.79,2.89Z" transform="translate(-2.79 -41.3)"/><path class="cls-1" d="M22.53,106.47a26.4,26.4,0,0,1,8.91-11c3.42-2.42,9.32-5.74,13.34-3l.36-2.74c-3.84.62-8,1.46-10.53,4.65-2.19,2.72-2.67,6.68,0,9.26s6.41,1.9,8.48-1.08a39.63,39.63,0,0,0,2.76-5.29c1-2.09,2-4.2,3-6.32Q52,83.9,54.72,76.62c.68-1.82-2.2-2.58-2.89-.8-1.44,3.74-2.76,7.53-3.93,11.36q-.85,2.76-1.6,5.54a19.58,19.58,0,0,0-1.08,5.54,4.88,4.88,0,0,0,5.27,4.93,8.84,8.84,0,0,0,6.69-4.1c1.6-2.31,2.69-5.71,5.47-6.9,2.34-1,5.67-.19,6.17,2.61.39,2.19-1.24,4.77-3.67,3.71s-2-3.7.2-4.71c2.72-1.23,5.84-.67,8.71-1.14s5.71-1.88,6.51-4.88l-2.95-.4-.18,7.1c0,1.81-.06,3.76,1.68,4.81a4.61,4.61,0,0,0,4.4.09c1.7-.88,2.65-2.61,3.45-4.25l-2.74-.36a12.86,12.86,0,0,0,4.37,5.79c1.94,1.45,4.74,2.67,7.19,1.94,2.64-.79,3.66-3.8,4.54-6.12a31.61,31.61,0,0,0,1.88-9l-2.8.76c1.68,2.85,4.8,1.64,7.47,1.95,4.18.48,3.18,6.19,2.58,8.91a1.5,1.5,0,0,0,2.89.8l1.88-5.46c.27-.8.86-3.95,1.92-4.16-.36.07-.18.17-.11.61s.1.81.15,1.21a19.54,19.54,0,0,0,.48,2.42,11.7,11.7,0,0,0,2.1,4.31c1.87,2.34,5.15,3.88,8.1,2.77A5.68,5.68,0,0,0,130.51,95c-.47-1.87-3.37-1.07-2.89.8a2.59,2.59,0,0,1-1.46,2.82,3.77,3.77,0,0,1-3.88-.56c-2.79-2-2.71-5.31-3.39-8.29a3,3,0,0,0-2.61-2.5,3.86,3.86,0,0,0-3.25,2,19,19,0,0,0-1.7,4.32L109.46,99l2.89.8c.85-3.85,1.48-8.55-2-11.37a6.61,6.61,0,0,0-4.6-1.36c-1,0-3.17.57-3.77-.45a1.51,1.51,0,0,0-2.79.76A29.1,29.1,0,0,1,98,94.09a26.45,26.45,0,0,1-1.14,3,5.23,5.23,0,0,1-1.52,2.38c-1.43.86-3.71-.44-4.88-1.28A9.47,9.47,0,0,1,87.13,94c-.43-1.08-2.13-1.63-2.75-.36a7.19,7.19,0,0,1-2,2.93c-.59.41-1.68.63-2-.21a7,7,0,0,1,0-2.09l0-2.13.12-4.73a1.51,1.51,0,0,0-3-.4c-.7,2.68-4.46,2.92-6.73,3-2.8.06-5.87.22-8.22,1.94a5.19,5.19,0,0,0-1.17,7.54,5.87,5.87,0,0,0,7.65,1.47,6.71,6.71,0,0,0,2.32-7.59,7.07,7.07,0,0,0-7.29-4.51c-3.46.25-5.8,2.49-7.54,5.32-1.5,2.45-2.84,5.73-6.11,6.07-1.68.18-2.48-.89-2.35-2.52A37.11,37.11,0,0,1,50,90.74c1.37-4.77,3-9.48,4.75-14.12l-2.89-.8q-2.46,6.57-5.31,13a98.18,98.18,0,0,1-5.71,11.82c-.84,1.34-2.1,2.28-3.6,1.29A3.26,3.26,0,0,1,36,98c1.38-4,6.36-4.75,10-5.32,1.39-.23,1.3-2.09.36-2.75-4.79-3.32-11.48-.31-15.75,2.53A29.31,29.31,0,0,0,19.94,105c-.77,1.75,1.82,3.28,2.59,1.52Z" transform="translate(-2.79 -41.3)"/></svg>