<?xml version="1.0" encoding="utf-8"?>
<!-- Generator: Adobe Illustrator 24.1.0, SVG Export Plug-In . SVG Version: 6.00 Build 0)  -->
<svg version="1.1" id="Layer_1" xmlns="http://www.w3.org/2000/svg" xmlns:xlink="http://www.w3.org/1999/xlink" x="0px" y="0px" height="150px" width="150px"
	 viewBox="0 0 60 15" style="enable-background:new 0 0 60 15;" xml:space="preserve">
<style type="text/css">
	.st0{fill:#6ed173;}
</style>
<g>
	<path class="st0" d="M11.36,11.61H8.43c0,0-0.9-2.69-0.94-3C7.49,8.5,7.42,7.92,7.42,7.92S7.34,8.49,7.33,8.6
		c-0.02,0.32-0.91,3.01-0.91,3.01H3.45L1.29,5.34h2.66l1.12,3.99l1.01-3.99h2.84l1.04,3.99l1.06-3.99h2.54L11.36,11.61z"/>
	<path class="st0" d="M20.7,10.67c-0.62,0.68-1.66,1.04-3.2,1.04c-1.55,0-2.71-0.4-3.36-1.28c-0.39-0.5-0.6-1.15-0.6-2
		c0-0.75,0.21-1.42,0.65-1.95c0.67-0.83,1.79-1.31,3.34-1.31c1.89,0,3.07,0.8,3.58,1.98c0.23,0.56,0.32,1.23,0.26,1.94h-5.28
		c0.01,0.18,0.07,0.39,0.22,0.57c0.21,0.26,0.65,0.4,1.2,0.4c0.46,0,0.79-0.09,0.99-0.23c0.18-0.11,0.28-0.25,0.31-0.37h2.52
		C21.25,9.87,21.03,10.31,20.7,10.67z M18.64,7.29c-0.19-0.25-0.59-0.43-1.14-0.43c-0.52,0-0.93,0.16-1.16,0.42
		c-0.14,0.16-0.24,0.41-0.25,0.55h2.75C18.83,7.68,18.77,7.46,18.64,7.29z"/>
	<path class="st0" d="M29.48,6.35c0.35,0.5,0.57,1.15,0.57,1.98c0,0.88-0.21,1.58-0.57,2.12c-0.48,0.75-1.42,1.2-2.56,1.2
		c-0.87,0-1.81-0.24-2.23-0.76l-0.19,0.72H22.1V2.52h2.58v3.64c0.25-0.52,1.19-0.97,2.25-0.97C28.1,5.19,28.96,5.59,29.48,6.35z
		 M24.82,7.6c-0.15,0.22-0.23,0.56-0.23,0.85c0,0.33,0.09,0.68,0.24,0.9c0.19,0.29,0.58,0.5,1.21,0.5c0.59,0,0.98-0.19,1.19-0.51
		c0.15-0.23,0.23-0.56,0.23-0.89c0-0.31-0.08-0.65-0.22-0.85c-0.21-0.31-0.58-0.54-1.19-0.54C25.42,7.06,25.03,7.28,24.82,7.6z"/>
	<path class="st0" d="M39.29,5.96V2.52h2.59c0,0,0,6.29,0,8.12c0,0.38,0.08,0.96,0.08,0.96h-2.39l-0.19-0.81
		c-0.29,0.48-1.11,0.9-2.28,0.9c-1.11,0-1.98-0.39-2.52-1.13c-0.4-0.52-0.6-1.2-0.6-2.06c0-0.83,0.21-1.52,0.6-2.05
		c0.51-0.73,1.49-1.23,2.64-1.23C38.12,5.21,38.92,5.47,39.29,5.96z M36.83,7.53c-0.18,0.23-0.27,0.6-0.27,0.95
		c0,0.33,0.08,0.68,0.23,0.9c0.19,0.29,0.56,0.5,1.15,0.5c0.56,0,0.9-0.16,1.12-0.42c0.19-0.24,0.31-0.62,0.31-0.98
		c0-0.39-0.11-0.77-0.32-0.99c-0.21-0.23-0.55-0.4-1.06-0.4C37.41,7.08,37.05,7.27,36.83,7.53z"/>
	<path class="st0" d="M49.82,10.67c-0.62,0.68-1.66,1.04-3.2,1.04c-1.55,0-2.71-0.4-3.36-1.28c-0.39-0.5-0.6-1.15-0.6-2
		c0-0.75,0.21-1.42,0.65-1.95c0.67-0.83,1.79-1.31,3.34-1.31c1.89,0,3.07,0.8,3.58,1.98c0.23,0.56,0.32,1.23,0.26,1.94H45.2
		c0.01,0.18,0.07,0.39,0.22,0.57c0.21,0.26,0.65,0.4,1.2,0.4c0.46,0,0.79-0.09,0.99-0.23c0.18-0.11,0.29-0.25,0.31-0.37h2.52
		C50.36,9.87,50.15,10.31,49.82,10.67z M47.75,7.29c-0.19-0.25-0.59-0.43-1.14-0.43c-0.52,0-0.93,0.16-1.16,0.42
		c-0.14,0.16-0.24,0.41-0.25,0.55h2.75C47.95,7.68,47.89,7.46,47.75,7.29z"/>
	<path class="st0" d="M56.13,11.61h-3.12l-2.59-6.27h2.76l1.41,4.01l1.47-4.01h2.67L56.13,11.61z"/>
</g>
</svg>
