<svg id="Layer_1" data-name="Layer 1" xmlns="http://www.w3.org/2000/svg" height="150px" width="150px" viewBox="0 0 136.2 56.8"><defs><style>.cls-1{fill:#357DED;}</style></defs><path class="cls-1" d="M8.44,65.11h1.85A3.58,3.58,0,0,0,12,68a7,7,0,0,0,4.36,1.22,7.74,7.74,0,0,0,4.29-1A2.94,2.94,0,0,0,22,65.77q0-2.58-4.27-3.33L13,61.6a7.42,7.42,0,0,1-4.38-2.1A5.76,5.76,0,0,1,7.1,55.43a6,6,0,0,1,2.42-4.88,9.92,9.92,0,0,1,6.46-2,10.35,10.35,0,0,1,6.92,2.13,6.82,6.82,0,0,1,2.48,5.37H21.66a3.67,3.67,0,0,0-1.57-2.93A6.31,6.31,0,0,0,16,51.94a6.26,6.26,0,0,0-3.79,1,3,3,0,0,0-1.36,2.48q0,2.46,3.72,3.17l3.9.65A11.09,11.09,0,0,1,24,61.44a5.49,5.49,0,0,1,1.75,4.33,6,6,0,0,1-2.44,4.92q-2.46,1.92-7,1.91A11.07,11.07,0,0,1,9.2,70.47a6.63,6.63,0,0,1-2.61-5.36Z" transform="translate(-6.59 -46.61)"/><path class="cls-1" d="M50.69,62.8h1.94a11.14,11.14,0,0,1-1.18,3,13.44,13.44,0,0,1-2.17,2.83,9.76,9.76,0,0,1-3.35,2.15,11.76,11.76,0,0,1-4.43.81,11.2,11.2,0,0,1-8.39-3.56,12.26,12.26,0,0,1-2.57-3.72,11.85,11.85,0,0,1-.85-4.72,11.85,11.85,0,0,1,.85-4.72,12.26,12.26,0,0,1,2.57-3.72,11.2,11.2,0,0,1,8.39-3.56,10.92,10.92,0,0,1,7.34,2.52,11.2,11.2,0,0,1,3.77,6.13H48.74a7.57,7.57,0,0,0-2.86-3.8,8,8,0,0,0-10.22,1.2A8.76,8.76,0,0,0,34,56.24,10.17,10.17,0,0,0,34,63a8.76,8.76,0,0,0,1.69,2.58A7.6,7.6,0,0,0,41.5,68.1a7.1,7.1,0,0,0,4.68-1.55,7.94,7.94,0,0,0,2.56-3.75Z" transform="translate(-6.59 -46.61)"/><path class="cls-1" d="M55.91,72.59v-24H66.7a6.59,6.59,0,0,1,5,2.15,7.82,7.82,0,0,1,2,5.57,7.92,7.92,0,0,1-2,5.58,6.56,6.56,0,0,1-5,2.15h-.87l8.58,8.55H69.77l-8.56-8.55H59.5v8.55H55.91Zm7.11-12h3.51a3.25,3.25,0,0,0,2.52-1.21,5,5,0,0,0,0-6.17A3.27,3.27,0,0,0,66.53,52h-7v8.58Z" transform="translate(-6.59 -46.61)"/><path class="cls-1" d="M91.16,71.61a11.59,11.59,0,0,1-11.8-12,11.8,11.8,0,1,1,23.6,0,11.61,11.61,0,0,1-11.8,12Zm0-20.67a7.72,7.72,0,0,0-5.81,2.37,8.67,8.67,0,0,0-2.29,6.3,8.68,8.68,0,0,0,2.29,6.31,8.33,8.33,0,0,0,11.62,0,8.68,8.68,0,0,0,2.29-6.31,8.67,8.67,0,0,0-2.3-6.3A7.68,7.68,0,0,0,91.16,50.94Z" transform="translate(-6.59 -46.61)"/><path class="cls-1" d="M107.53,59.61v-12h3.61V68.19h11.65v3.42H107.53Z" transform="translate(-6.59 -46.61)"/><path class="cls-1" d="M127.53,58.61v-12h3.61V67.19h11.65v3.42H127.53Z" transform="translate(-6.59 -46.61)"/><path class="cls-1" d="M23.21,90.41v-12H31.6a10.9,10.9,0,0,1,8.2,3.4,12.89,12.89,0,0,1,0,17.2,10.9,10.9,0,0,1-8.2,3.4H23.21Zm6,8.58H31.6a7.44,7.44,0,0,0,5.65-2.39,9.64,9.64,0,0,0,0-12.38,7.44,7.44,0,0,0-5.65-2.39H26.82V99Z" transform="translate(-6.59 -46.61)"/><path class="cls-1" d="M58.16,103.41a12.18,12.18,0,0,1-8.38-20.64A12,12,0,0,1,66.54,100,11.46,11.46,0,0,1,58.16,103.41Zm0-20.67a7.72,7.72,0,0,0-5.81,2.37,9.82,9.82,0,0,0,0,12.61,8.33,8.33,0,0,0,11.62,0,9.81,9.81,0,0,0,0-12.61A7.68,7.68,0,0,0,58.16,82.74Z" transform="translate(-6.59 -46.61)"/><path class="cls-1" d="M75.52,91.41,73.15,82h3.09L79.9,96.8h-.1L83.72,82h2.86L90.49,96.8H90.4L94.05,82h3.1l-4.71,18.86H88.73L85.1,86.68h.1l-3.64,14.15h-3.7Q77.58,99.66,75.52,91.41Z" transform="translate(-6.59 -46.61)"/><path class="cls-1" d="M103.47,90.41v-12h5.32l9.77,18.68h.68V78.41h3.61v24h-5.32l-9.77-18.68h-.68v18.68h-3.61Z" transform="translate(-6.59 -46.61)"/></svg>