<svg id="Layer_1" data-name="Layer 1" xmlns="http://www.w3.org/2000/svg" height="150px" width="150px" viewBox="0 0 142.18 23.17"><defs><style>.cls-1{fill:#404E7C;}</style></defs><path class="cls-1" d="M8.16,78a2.1,2.1,0,0,0,2.38,2c1.28,0,2-.46,2-1.3a1.18,1.18,0,0,0-.47-1,4.77,4.77,0,0,0-1.76-.62,21.12,21.12,0,0,1-3.17-1A4.29,4.29,0,0,1,5,74.25a6.09,6.09,0,0,1-.54-2.57c0-3.26,2.16-5.23,5.75-5.23a5.69,5.69,0,0,1,4.56,1.73,6.14,6.14,0,0,1,1.4,3.09L12,71.84a1.56,1.56,0,0,0-1.8-1.6c-1.12,0-1.8.46-1.8,1.16s.45,1,2.57,1.6a11.41,11.41,0,0,1,3.51,1.3,4.44,4.44,0,0,1,2.06,4.15,5.72,5.72,0,0,1-1.09,3.6c-1,1.3-2.79,2-5.08,2-2.7,0-4.61-.92-5.64-2.71a7.38,7.38,0,0,1-.86-2.71Z" transform="translate(-3.91 -61)"/><path class="cls-1" d="M27.19,73a4.28,4.28,0,0,0-.6-1.6,2.09,2.09,0,0,0-1.8-1c-1.74,0-2.76,1.74-2.76,4.72S23.12,80,24.83,80a2.32,2.32,0,0,0,2-1.19,3.23,3.23,0,0,0,.39-1.25l3.94.79a9.24,9.24,0,0,1-.9,2.68,5.93,5.93,0,0,1-5.51,3.12,6.12,6.12,0,0,1-5-2.33,10.62,10.62,0,0,1-1.93-6.59c0-5.42,2.7-8.89,6.88-8.89,3.3,0,5.59,2.06,6.3,5.67Z" transform="translate(-3.91 -61)"/><path class="cls-1" d="M42.52,71.89a5.62,5.62,0,0,0-2.19-.51,2.86,2.86,0,0,0-2.55,1.46,4.54,4.54,0,0,0-.64,2.41v4.23a37,37,0,0,0,.17,4.06H32.87A37.84,37.84,0,0,0,33,79.45V71.11a33.63,33.63,0,0,0-.17-4.1h4.27v2.15a4.53,4.53,0,0,1,4.28-2.47,7,7,0,0,1,2.13.32Z" transform="translate(-3.91 -61)"/><path class="cls-1" d="M44.27,75.25c0-5.42,2.75-8.86,7.08-8.86s7.07,3.44,7.07,8.81-2.83,9-7.09,9S44.27,80.7,44.27,75.25Zm4.1,0c0,3,1.11,4.83,3,4.83s2.94-1.76,2.94-4.77-1.1-4.82-2.92-4.82S48.37,72.24,48.37,75.22Z" transform="translate(-3.91 -61)"/><path class="cls-1" d="M64.64,61a34.6,34.6,0,0,0-.17,4.09V79.45a40.39,40.39,0,0,0,.17,4.09H60.16a36.56,36.56,0,0,0,.17-4.09V65.09A34.71,34.71,0,0,0,60.16,61Z" transform="translate(-3.91 -61)"/><path class="cls-1" d="M71.37,61a34.6,34.6,0,0,0-.17,4.09V79.45a40.39,40.39,0,0,0,.17,4.09H66.89a36.56,36.56,0,0,0,.17-4.09V65.09A34.71,34.71,0,0,0,66.89,61Z" transform="translate(-3.91 -61)"/><path class="cls-1" d="M90.77,82.68c0-.17,0-.36,0-.6a5.35,5.35,0,0,1-4.33,2c-3.91,0-6.26-3.31-6.26-8.78A10.65,10.65,0,0,1,82,68.64a5.37,5.37,0,0,1,4.35-2.11,5.69,5.69,0,0,1,4.4,2c0-.4,0-.65,0-1V65.25A37.28,37.28,0,0,0,90.59,61H95a38,38,0,0,0-.17,4.25v14A40.2,40.2,0,0,0,95,83.54H90.77Zm-6.41-7.4a5.67,5.67,0,0,0,1,3.57,2.66,2.66,0,0,0,2.08,1c1.91,0,3.3-2,3.3-4.68s-1.37-4.53-3.32-4.53S84.36,72.43,84.36,75.28Z" transform="translate(-3.91 -61)"/><path class="cls-1" d="M96.68,75.25c0-5.42,2.74-8.86,7.07-8.86s7.08,3.44,7.08,8.81-2.83,9-7.1,9S96.68,80.7,96.68,75.25Zm4.09,0c0,3,1.12,4.83,3,4.83s2.94-1.76,2.94-4.77-1.09-4.82-2.92-4.82S100.77,72.24,100.77,75.22Z" transform="translate(-3.91 -61)"/><path class="cls-1" d="M123.67,83.54a30.5,30.5,0,0,0-.67-3.17L121.69,75c-.1-.46-.19-.81-.23-1-.15.62-.15.67-.26,1l-1.31,5.42c-.3,1.19-.58,2.52-.66,3.17h-3.65c-.14-1-.3-1.7-.64-3.17l-2.4-9.83c-.24-1-.56-2.14-1-3.53h4.61a23.17,23.17,0,0,0,.4,3.2l.92,4.85c.11.65.2,1.09.22,1.3.26-1,.26-1,.3-1.3l1.2-4.93c.58-2.55.58-2.55.66-3.12H123c.07.55.33,1.85.65,3.12l1.24,5.12c0,.19.17.79.26,1.11.06-.4.06-.4.19-1.14l.9-4.79a26.48,26.48,0,0,0,.45-3.42h4.61c-.32,1-.64,2.25-1,3.53L128,80.37a29.21,29.21,0,0,0-.64,3.17Z" transform="translate(-3.91 -61)"/><path class="cls-1" d="M132.58,83.54a37.84,37.84,0,0,0,.17-4.09V71.11a33.94,33.94,0,0,0-.17-4.1h4.27v1.14c0,.17,0,.57,0,.76a5.36,5.36,0,0,1,4.41-2.3,4.16,4.16,0,0,1,3.45,1.52,6.8,6.8,0,0,1,1.23,4.55v6.8c0,1.57.06,2.92.17,4.06h-4.46a38.55,38.55,0,0,0,.17-4.09V73.9a3.83,3.83,0,0,0-.34-2,1.54,1.54,0,0,0-1.42-.76c-1.2,0-2.27,1-3.19,2.85v5.47c0,1.55,0,2.68.17,4.09Z" transform="translate(-3.91 -61)"/></svg>