<?xml version="1.0" encoding="utf-8"?>
<!-- Generator: Adobe Illustrator 24.1.0, SVG Export Plug-In . SVG Version: 6.00 Build 0)  -->
<svg version="1.1" id="Layer_1" xmlns="http://www.w3.org/2000/svg" xmlns:xlink="http://www.w3.org/1999/xlink" x="0px" y="0px" height="150px" width="150px"
	 viewBox="0 0 65 15" style="enable-background:new 0 0 65 15;" xml:space="preserve">
<style type="text/css">
	.st0{fill:#FFFFFF;}
</style>
<g>
	<path class="st0" d="M6.11,8.27c0-1.71,1.25-2.96,3.03-2.96c1.78,0,3,1.25,3,2.96v0.48H7.89c0.14,0.66,0.64,0.96,1.25,0.96
		c0.49,0,0.85-0.1,1.07-0.41h1.77c-0.36,1.16-1.44,1.94-2.84,1.94C7.37,11.24,6.11,9.98,6.11,8.27z M10.39,7.67
		c-0.19-0.58-0.65-0.83-1.24-0.83c-0.59,0-1.05,0.26-1.22,0.83H10.39z"/>
	<path class="st0" d="M13.03,7.92c0-1.81,1.05-2.61,2.42-2.61c0.8,0,1.47,0.31,1.89,0.9c0.42-0.59,1.08-0.9,1.89-0.9
		c1.37,0,2.42,0.8,2.42,2.61v3.17h-1.71V7.92c0-0.75-0.36-1.01-0.88-1.01c-0.5,0-0.87,0.26-0.87,1.01v3.17h-1.71V7.92
		c0-0.75-0.36-1.01-0.87-1.01c-0.51,0-0.88,0.26-0.88,1.01v3.17h-1.71V7.92z"/>
	<path class="st0" d="M22.54,8.34c0-1.81,1.25-3.03,3.04-3.03c1.77,0,3,1.17,3,3.02v2.76h-1.57v-0.93c-0.3,0.7-0.93,1.08-1.74,1.08
		C24.01,11.24,22.54,10.3,22.54,8.34z M26.87,8.27c0-0.81-0.52-1.37-1.3-1.37c-0.77,0-1.3,0.56-1.3,1.37s0.52,1.37,1.3,1.37
		C26.35,9.64,26.87,9.08,26.87,8.27z"/>
	<path class="st0" d="M29.64,3.85c0-0.63,0.47-1.09,1.09-1.09s1.09,0.47,1.09,1.09s-0.47,1.09-1.09,1.09S29.64,4.48,29.64,3.85z
		 M29.88,5.46h1.71v5.63h-1.71V5.46z"/>
	<path class="st0" d="M33.08,2.99h1.71v8.09h-1.71V2.99z"/>
	<path class="st0" d="M39.12,7.92c0-1.81,1.05-2.61,2.42-2.61c0.8,0,1.47,0.31,1.89,0.9c0.42-0.59,1.08-0.9,1.89-0.9
		c1.37,0,2.42,0.8,2.42,2.61v3.17h-1.71V7.92c0-0.75-0.36-1.01-0.88-1.01c-0.5,0-0.87,0.26-0.87,1.01v3.17h-1.71V7.92
		c0-0.75-0.36-1.01-0.87-1.01c-0.51,0-0.88,0.26-0.88,1.01v3.17h-1.71V7.92z"/>
	<path class="st0" d="M48.62,8.27c0-1.71,1.25-2.96,3.03-2.96s3,1.25,3,2.96v0.48H50.4c0.14,0.66,0.64,0.96,1.25,0.96
		c0.49,0,0.86-0.1,1.07-0.41h1.77c-0.37,1.16-1.44,1.94-2.84,1.94C49.88,11.24,48.62,9.98,48.62,8.27z M52.9,7.67
		c-0.19-0.58-0.65-0.83-1.24-0.83s-1.05,0.26-1.22,0.83H52.9z"/>
	<path class="st0" d="M55.5,10.14c0-0.63,0.47-1.09,1.09-1.09s1.09,0.47,1.09,1.09s-0.47,1.09-1.09,1.09S55.5,10.77,55.5,10.14z
		 M55.62,3.63h1.94l-0.23,4.9h-1.48L55.62,3.63z"/>
</g>
</svg>
