<?xml version="1.0" encoding="utf-8"?>
<!-- Generator: Adobe Illustrator 24.1.0, SVG Export Plug-In . SVG Version: 6.00 Build 0)  -->
<svg version="1.1" id="Layer_1" xmlns="http://www.w3.org/2000/svg" xmlns:xlink="http://www.w3.org/1999/xlink" x="0px" y="0px" height="150px" width="150px"
	 viewBox="0 0 15 15" style="enable-background:new 0 0 15 15;" xml:space="preserve">
<style type="text/css">
	.st0{fill:#04b0f1;}
</style>
<g>
	<path class="st0" d="M3.98,6.51V4.68h1.84v1.82H3.98z M3.98,10.79V8.97h1.84v1.82H3.98z"/>
	<path class="st0" d="M10.21,10.36c-0.53,0.79-1.32,1.47-2.38,2.04l-0.76-1.15c0.39-0.27,0.72-0.54,1-0.81
		c0.28-0.27,0.5-0.56,0.68-0.85c0.18-0.3,0.31-0.61,0.39-0.95s0.13-0.71,0.13-1.11c0-0.4-0.04-0.77-0.13-1.11
		C9.06,6.07,8.93,5.75,8.75,5.46C8.57,5.16,8.34,4.88,8.06,4.6c-0.28-0.27-0.61-0.54-1-0.81l0.76-1.15
		c1.06,0.57,1.85,1.25,2.38,2.04C10.74,5.47,11,6.42,11,7.52C11,8.62,10.74,9.57,10.21,10.36z"/>
</g>
</svg>
