<svg id="Layer_1" data-name="Layer 1" xmlns="http://www.w3.org/2000/svg" viewBox="0 0 1763 1772.5"><defs><style>.cls-1{fill:#6b33f1;}</style></defs><rect class="cls-1" x="790" y="1214.5" width="150" height="75"/><rect class="cls-1" x="790" y="1064.5" width="150" height="150"/><rect class="cls-1" x="1309" y="1139.5" width="150" height="150"/><rect class="cls-1" x="790" y="914.5" width="150" height="150"/><rect class="cls-1" x="1607" y="614.5" width="150" height="150"/><rect class="cls-1" x="1607" y="686.5" width="150" height="150"/><rect class="cls-1" x="1607" y="464.5" width="150" height="150"/><rect class="cls-1" x="1313" y="464.5" width="150" height="150"/><rect class="cls-1" x="1313" y="614.5" width="150" height="150"/><rect class="cls-1" x="1313" y="686.5" width="150" height="150"/><rect class="cls-1" x="1049" y="687.5" width="150" height="150"/><rect class="cls-1" x="549" y="612.5" width="241" height="150"/><rect class="cls-1" x="790" y="684.5" width="150" height="150"/><rect class="cls-1" x="790" y="612.5" width="150" height="150"/><rect class="cls-1" x="790" y="462.5" width="150" height="150"/><rect class="cls-1" x="399" y="684.5" width="150" height="150"/><rect class="cls-1" x="399" y="612.5" width="150" height="150"/><rect class="cls-1" x="399" y="462.5" width="150" height="150"/><rect class="cls-1" x="148" y="462.5" width="180" height="150"/><rect class="cls-1" y="684.5" width="150" height="150"/><rect class="cls-1" y="612.5" width="150" height="150"/><rect class="cls-1" y="462.5" width="150" height="150"/><rect class="cls-1" x="399" y="5" width="150" height="66"/><rect class="cls-1" x="399" y="69.5" width="150" height="150"/><rect class="cls-1" x="399" y="219.5" width="150" height="150"/><rect class="cls-1" x="549" y="219.5" width="150" height="150"/><rect class="cls-1" x="843" y="214.5" width="150" height="150"/><rect class="cls-1" x="993" y="214.5" width="150" height="150"/><rect class="cls-1" x="993" y="64.5" width="150" height="150"/><rect class="cls-1" x="993" width="150" height="66"/><rect class="cls-1" x="1143" width="150" height="66"/><rect class="cls-1" x="1368" y="2" width="150" height="66"/><rect class="cls-1" x="1368" y="66.5" width="150" height="150"/><rect class="cls-1" x="1368" y="216.5" width="150" height="150"/><rect class="cls-1" x="1463" y="464.5" width="150" height="75"/><rect class="cls-1" x="1313" y="1695.5" width="150" height="75"/><rect class="cls-1" x="1077" y="1397.5" width="150" height="75"/><rect class="cls-1" x="707" y="1697.5" width="150" height="75"/><rect class="cls-1" x="857" y="1397.5" width="220" height="75"/><rect class="cls-1" x="151" y="1695.5" width="314" height="75"/><rect class="cls-1" y="1695.5" width="150" height="75"/><rect class="cls-1" x="465" y="1688.5" width="150" height="75"/><rect class="cls-1" x="465" y="1695.5" width="150" height="75"/><rect class="cls-1" x="151" y="1395.5" width="314" height="75"/><rect class="cls-1" x="1609" y="1139.5" width="150" height="75"/><rect class="cls-1" x="1159" y="1139.5" width="150" height="75"/><rect class="cls-1" x="940" y="914.5" width="150" height="75"/><rect class="cls-1" x="640" y="914.5" width="150" height="75"/><rect class="cls-1" x="253" y="575.5" width="75" height="150"/><rect class="cls-1" x="1152" y="1435.5" width="75" height="150"/><rect class="cls-1" x="699" y="219.5" width="75" height="150"/><rect class="cls-1" x="699" y="155.5" width="75" height="150"/><rect class="cls-1" x="699" y="5.5" width="75" height="150"/><rect class="cls-1" x="148" y="687.5" width="180" height="75"/><rect class="cls-1" x="1518" y="141.5" width="239" height="75"/><rect class="cls-1" x="1518" y="291.5" width="239" height="75"/><rect class="cls-1" x="1518" y="2" width="239" height="66"/><rect class="cls-1" y="915" width="150" height="75"/><rect class="cls-1" x="1459" y="1139.5" width="150" height="150"/><rect class="cls-1" x="1384" y="989.5" width="150" height="150"/><rect class="cls-1" x="1609" y="989.5" width="150" height="150"/><rect class="cls-1" x="1159" y="989.5" width="150" height="150"/><rect class="cls-1" x="1159" y="915" width="150" height="75"/><rect class="cls-1" x="1609" y="915" width="150" height="75"/><rect class="cls-1" x="1613" y="1388.5" width="150" height="150"/><rect class="cls-1" x="1613" y="1613.5" width="150" height="150"/><rect class="cls-1" x="1463" y="1538.5" width="150" height="150"/><rect class="cls-1" x="1313" y="1545.5" width="150" height="150"/><rect class="cls-1" x="1313" y="1395.5" width="150" height="150"/><rect class="cls-1" x="707" y="1397.5" width="150" height="150"/><rect class="cls-1" x="707" y="1547.5" width="150" height="150"/><rect class="cls-1" x="465" y="1538.5" width="150" height="150"/><rect class="cls-1" x="465" y="1395.5" width="150" height="150"/><rect class="cls-1" y="1545.5" width="150" height="150"/><rect class="cls-1" y="1395.5" width="150" height="150"/><rect class="cls-1" y="989.5" width="150" height="150"/><rect class="cls-1" y="1139.5" width="150" height="150"/><rect class="cls-1" x="1002" y="1615.5" width="150" height="150"/><rect class="cls-1" x="151" y="1064.5" width="394" height="75"/><rect class="cls-1" x="763" y="1578.5" width="464" height="75"/><rect class="cls-1" x="151" y="1214.5" width="394" height="75"/><rect class="cls-1" x="151" y="915" width="394" height="75"/><rect class="cls-1" x="549" y="5" width="150" height="66"/><rect class="cls-1" y="219.5" width="150" height="150"/><rect class="cls-1" x="150" y="219.5" width="150" height="150"/><rect class="cls-1" x="150" y="69.5" width="150" height="150"/><rect class="cls-1" x="150" y="5" width="150" height="66"/></svg>
